<svg id="Capa_1" data-name="Capa 1" xmlns="http://www.w3.org/2000/svg" xmlns:xlink="http://www.w3.org/1999/xlink" viewBox="0 0 44 44"><defs><style>.cls-1{fill:none;}.cls-2{fill:#211915;}.cls-3{clip-path:url(#clip-path);}.cls-4{fill:#fff;}</style><clipPath id="clip-path"><circle class="cls-1" cx="21.7" cy="22.29" r="21.78"/></clipPath></defs><title>Mesa de trabajo 1</title><circle class="cls-2" cx="21.92" cy="22.12" r="21.79"/><g class="cls-3"><path class="cls-4" d="M49.12,20.69c-2.54-2.29-6.19-2.14-9.27-1.26l-.23.07c1.1-2.27-1.15-4.8-3.16-5.58a7.75,7.75,0,0,0-3.36-.47.39.39,0,0,0,0-.17c.08-3.11-4.07-4.76-6.57-5.22a23.1,23.1,0,0,0-10.42.6c-1.26-2.89-4.74-4-7.64-4.21a20.91,20.91,0,0,0-4.24.16C1.81-2.37-8.31-3.08-14.5-.74-18.89-4.27-25.23-4.51-30.44-3A27.85,27.85,0,0,0-35-1.2c-4.31-1.4-8.79-.47-13,1C-51.75,1.12-56.32,3-58.78,6.37h0l0,0a.12.12,0,0,0,0,.09l0,0a.19.19,0,0,0,0,.2.28.28,0,0,0,0,.25c.17.28.33.56.5.84a16.83,16.83,0,0,0,1.08,2c1.26,2.45,2.41,4.93,4.45,6.94a17.44,17.44,0,0,0,9.59,4.79h.06a2.2,2.2,0,0,0,.46.22.24.24,0,0,0,.23-.08l0,0a15.5,15.5,0,0,0,1.42,1.95,10.41,10.41,0,0,0,10.79,3,.4.4,0,0,0,.13-.07c3.57,2.09,8,3.16,11.72,2a.25.25,0,0,0,.19-.25l.16.18a17.11,17.11,0,0,0,9.66,5c2.8.43,6.41.3,8.51-1.86a15.26,15.26,0,0,0,3.24,2.55,14.64,14.64,0,0,0,4.87,2.2,12.1,12.1,0,0,0,8.44-1.31l.65.43a12,12,0,0,0,5.59,2.42,7.44,7.44,0,0,0,5.26-1l.18-.06a2.66,2.66,0,0,0,.44-.2,11.13,11.13,0,0,0,7.53.88c2.3-.55,4.94-2.34,5.15-4.89,3.15,0,6.51-1,8.34-3.78A6.19,6.19,0,0,0,49.12,20.69Zm-91.29-.13-.07-.12v0c.67.87,1.34,1.73,2.05,2.56A12.73,12.73,0,0,0-38,25,11.64,11.64,0,0,1-42.17,20.55Zm7.3,5.18c-3-.7-5.42-4.3-7.26-6.57a38.86,38.86,0,0,0-6.57-6.55c-.48-.39-1-.77-1.49-1.12a.15.15,0,0,0-.19,0,.25.25,0,0,0-.11.41l1.92,1.71A35.15,35.15,0,0,1-44.78,18c.4.57.77,1.16,1.14,1.77-3.87-.1-7.22-2.53-9.62-5.41A34.26,34.26,0,0,1-56,10.46c-.17-.28-.34-.57-.5-.86a19.88,19.88,0,0,0-1.11-1.9c-.09-.14-.18-.26-.28-.39l-.31-.41c-.06-.08-.12-.17-.18-.24h0l-.05,0A31.15,31.15,0,0,1-54,3.25,33.64,33.64,0,0,1-48.48.73c4-1.43,8.3-2.52,12.45-1.4q-1.08.58-2.12,1.23c-1.29.8-2.49,1.72-3.76,2.55a12.26,12.26,0,0,1-2.4,1.28A7.58,7.58,0,0,0-45.75,5l-.33-.06c-.18,0-.31.26-.11.33,3.77,1.4,5.29,5.08,6.73,8.54,1.35,3.24,2.65,6.58,5,9.24a16.69,16.69,0,0,0,1.84,1.75A2.8,2.8,0,0,1-34.87,25.73Zm12.21,1.38-.36.08a14.5,14.5,0,0,1-7.44-2.14,24.39,24.39,0,0,1-6.27-6.92c-1.28-2.59-2.18-5.37-3.5-7.95-1-2-2.42-4-4.49-4.9,1.78-.21,3.71-1.82,5-2.7a35.89,35.89,0,0,1,7.53-4.1c5.66-2.16,11.55-2,16.7,1.19l-.34.16c-3.42,1.73-6.19,4.44-9.3,6.62A27.87,27.87,0,0,1-31,9.57c-2.33.91-5.27,2.45-7.79,1.82a.19.19,0,0,0-.11.35c1.63.69,3.29.26,4.91-.26A46.46,46.46,0,0,0-29,9.61c.92.57,3.09,4.27,3.33,4.74.92,1.73,1.65,3.56,2.42,5.36a43.47,43.47,0,0,0,2.52,5.15A2.71,2.71,0,0,1-22.65,27.11ZM-3,31.54a.43.43,0,0,0,0,.12l-.39.14a3.34,3.34,0,0,0,.71-1.23A7.08,7.08,0,0,1-3,31.54ZM7.84,35.33a12.33,12.33,0,0,1-2.21-.82l.88.3a20.65,20.65,0,0,0,4.49.88A11,11,0,0,1,7.84,35.33Zm3.46-.61a16.86,16.86,0,0,1-5.47-1.08,17.18,17.18,0,0,1-8.12-6.48,55.42,55.42,0,0,1-5.11-9.57c-1-2.35-2.21-4.92-4.64-6.09-.18-.09-.37.18-.2.31,2.93,2.29,4,5.73,5.45,9a45.7,45.7,0,0,0,3,5.8.14.14,0,0,0,0,.06,7.71,7.71,0,0,1,.47,3.22A3.46,3.46,0,0,1-5,32.22a12.13,12.13,0,0,1-4.62-.11c-3-.63-5.33-2.31-7.62-4.14a19.54,19.54,0,0,1-3.42-4.73c-1.64-3.11-2.73-6.48-4.44-9.56a19,19,0,0,0-3.3-4.35l.27-.12c3.31-1.62,6-4.09,9-6.26A17.72,17.72,0,0,1-7.84-1,15.85,15.85,0,0,1-.83.42a12.13,12.13,0,0,1,4.31,4.3A30.38,30.38,0,0,0-2.6,6.48C-6.41,8-10.29,9.52-14,11.32a33.17,33.17,0,0,0-4.67,2.75c-1.23.87-2.94,1.9-3.64,3.27a.25.25,0,0,0,.31.35c1.28-.52,2.29-1.7,3.41-2.51a36.36,36.36,0,0,1,4-2.53c3.2-1.73,6.66-3,10-4.41,6-2.53,15.1-5.57,19.83.67A95.29,95.29,0,0,0,3.75,14.33C1,15.72-2.94,17.52-4.41,20.41a.18.18,0,0,0,.27.23c1.29-.88,2.35-2.06,3.65-3,.24-.16.49-.32.74-.48A6.92,6.92,0,0,1,5.79,20.4c.67.89,1.25,1.91,1.89,2.88a43.87,43.87,0,0,0,5,8.06,20.09,20.09,0,0,0,3.11,3C14.28,34.37,12.82,34.76,11.3,34.72Zm38-7-.11.18A9.54,9.54,0,0,1,44.12,31a4.54,4.54,0,0,1-1.6,0,3.26,3.26,0,0,1-.78-.25,8.48,8.48,0,0,1-1.11-.68,7.88,7.88,0,0,0-.56-.64,55.07,55.07,0,0,0-5-4.74c-.14-.11-.37.06-.25.22.94,1.19,2,2.29,3,3.39l.12.12c.22.29.46.57.71.84s.35.52.51.79a4.36,4.36,0,0,1,.78,3.1,5.84,5.84,0,0,1-.26.92A5.24,5.24,0,0,1,37.44,36a9.05,9.05,0,0,1-4,.75,9.66,9.66,0,0,1-4.25-1,.23.23,0,0,0-.15-.08h0a10.06,10.06,0,0,1-3.57-3.27c-2.69-4-4-8.83-8.87-10.75a.25.25,0,0,0-.22.44,15.05,15.05,0,0,1,6,6.46.22.22,0,0,0-.24.28c0,.13,0,.22.07.34a.15.15,0,0,0,.17.06.32.32,0,0,0,.2-.29c.1.2.21.39.31.59.44.85.89,1.71,1.38,2.53a5.3,5.3,0,0,1,.21,2.13A2.19,2.19,0,0,1,23.21,36a5.81,5.81,0,0,1-1,.33A13.51,13.51,0,0,1,17,34.14l-.1-.07a21.07,21.07,0,0,1-5.3-5.45c-.54-1.24-1.33-2.39-2-3.58-.83-1.54-1.51-3.16-2.31-4.72a15.31,15.31,0,0,0-2.27-3.4,6.37,6.37,0,0,0-1.73-1.49l.05,0c3.25-1.69,6.58-3.29,9.9-4.84,5.24-2.43,16.55-4.24,19.18,2.84a.37.37,0,0,0,0,.08A23.42,23.42,0,0,0,27,15.09c-5.94,2.29-12.63,5.06-16.58,10.31a.16.16,0,0,0,.25.22A44,44,0,0,1,24.35,17a34.16,34.16,0,0,1,7.73-2.64,7.31,7.31,0,0,1,4.75.67,4.27,4.27,0,0,1,2.1,3.13,2.49,2.49,0,0,1-.65,1.3,8.33,8.33,0,0,1-.87.74c-1.26.45-2.51.94-3.76,1.41A60.22,60.22,0,0,0,27,24.36c-.23.12,0,.42.18.37a87.24,87.24,0,0,0,9.8-3.43c3-1.09,6.26-2.33,9.43-1.23A5.16,5.16,0,0,1,49.29,27.72Z"/><path class="cls-4" d="M13.91,33.85c-3.58-.39-6.84-.65-10-2.61C.5,29.11-1.35,26-3.72,22.89c0,0-.06,0,0,0A58.69,58.69,0,0,0-.32,28a17.14,17.14,0,0,0,3.94,3.31C6.5,33.07,10.45,34.63,13.91,34,14,34,14,33.86,13.91,33.85Z"/><path class="cls-4" d="M2.43,28.78a22.67,22.67,0,0,1-3.71-4.2s-.06,0,0,0a11.1,11.1,0,0,0,3.71,4.24S2.46,28.81,2.43,28.78Z"/><path class="cls-4" d="M.57,9.45A2.08,2.08,0,0,0,0,9.33c-.51,0-.47.85.06.81A2.33,2.33,0,0,0,.61,10C.9,9.92.82,9.53.57,9.45Z"/><path class="cls-4" d="M2.59,8.07a1.16,1.16,0,0,0-.69-.28.34.34,0,1,0,0,.67,1.16,1.16,0,0,0,.72-.18A.14.14,0,0,0,2.59,8.07Z"/><path class="cls-4" d="M4.39,8a.21.21,0,0,0-.19.38c.18.09.3.28.51.31a.15.15,0,0,0,.17-.12C4.89,8.25,4.63,8.09,4.39,8Z"/><path class="cls-4" d="M6.59,9.06a.14.14,0,0,0-.15-.13c-.2,0-.32.15-.49.26a1.91,1.91,0,0,1-.65.26.22.22,0,0,0-.16.12h0a.26.26,0,0,0-.1.51.24.24,0,0,0,.25-.1.26.26,0,0,0,.2,0C5.87,9.87,6.61,9.55,6.59,9.06Z"/><path class="cls-4" d="M7.13,6.54A.32.32,0,0,0,7,7.17.32.32,0,0,0,7.13,6.54Z"/><path class="cls-4" d="M8.5,6.4C8.41,6.18,8.23,6.12,8,6s-.54.35-.23.46a.93.93,0,0,0,.62.11A.13.13,0,0,0,8.5,6.4Z"/><path class="cls-4" d="M9.88,6.65a2.24,2.24,0,0,0-.74-.14.12.12,0,0,0,0,.24,2.22,2.22,0,0,0,.73.15A.13.13,0,0,0,9.88,6.65Z"/><path class="cls-4" d="M10.75,7.37l-.19-.1c-.3-.17-.42.43-.08.39l.21,0A.14.14,0,0,0,10.75,7.37Z"/><path class="cls-4" d="M1.94,11a.54.54,0,0,0-.52,0c-.3.15-.16.62.18.51a.56.56,0,0,0,.4-.34A.14.14,0,0,0,1.94,11Z"/><path class="cls-4" d="M10.4,16.17c-.05-.27-.42-.22-.61-.22-.51,0-.33.89.14.67C10.12,16.53,10.46,16.44,10.4,16.17Z"/><path class="cls-4" d="M13.37,13.85l-.17.06c-.37.18-.16.79.21.61a1.29,1.29,0,0,0,.23-.13A.31.31,0,0,0,13.37,13.85Z"/><path class="cls-4" d="M16,12.94a.58.58,0,0,0-.32-.08c-.4,0-.22.73.16.47a.52.52,0,0,0,.21-.22A.13.13,0,0,0,16,12.94Z"/><path class="cls-4" d="M17,12.95l.07.07a.16.16,0,0,0,.25-.09l0-.11C17.46,12.42,16.71,12.6,17,12.95Z"/><path class="cls-4" d="M13.85,17.44a.23.23,0,0,0-.31-.06l-.07.06c-.26.22.09.6.3.34l.07-.08A.23.23,0,0,0,13.85,17.44Z"/><path class="cls-4" d="M8.34,16H8.22c-.18,0-.1.31.07.21l.1-.06A.08.08,0,0,0,8.34,16Z"/><path class="cls-4" d="M17.81,9.37c-.35-.13-.64.12-.85.39s.17.56.37.32.41-.3.54-.53A.14.14,0,0,0,17.81,9.37Z"/><path class="cls-4" d="M20.18,9.49a1.47,1.47,0,0,0,.08.4.07.07,0,0,0,.12,0,1.5,1.5,0,0,0,.11-.39C20.53,9.29,20.16,9.27,20.18,9.49Z"/><path class="cls-4" d="M21.15,11,21,10.92c-.09-.09-.24.07-.14.15a.32.32,0,0,0,.28.09A.08.08,0,0,0,21.15,11Z"/><path class="cls-4" d="M23.45,9.44c-.14-.19-.33-.17-.54-.09a.15.15,0,0,0,.06.29.91.91,0,0,0,.42,0A.13.13,0,0,0,23.45,9.44Z"/><path class="cls-4" d="M25.61,9.4a1.1,1.1,0,0,0-.56.12c-.17.07-.13.36.07.34a1.12,1.12,0,0,0,.55-.17C25.78,9.62,25.76,9.41,25.61,9.4Z"/><path class="cls-4" d="M27.63,9.63a.84.84,0,0,0-.52-.19.18.18,0,0,0-.07.36.85.85,0,0,0,.56,0A.11.11,0,0,0,27.63,9.63Z"/><path class="cls-4" d="M29.54,10.45l-.13-.12c-.18-.16-.47.08-.32.28l.11.15C29.39,11,29.79,10.68,29.54,10.45Z"/><path class="cls-4" d="M23.52,11.2a.52.52,0,0,0,0-.06.26.26,0,0,0-.46-.15l0,0C22.71,11.49,23.54,11.7,23.52,11.2Z"/><path class="cls-4" d="M21.75,11.51a.8.8,0,0,0,.05.33.11.11,0,0,0,.16.05,1,1,0,0,0,.27-.22C22.57,11.31,21.73,11,21.75,11.51Z"/><path class="cls-4" d="M20.7,12.77a0,0,0,1,0,0,.06A0,0,0,1,0,20.7,12.77Z"/><path class="cls-4" d="M18.5,11.93h-.08a.21.21,0,0,0-.08.4l.07,0C18.76,12.52,18.89,11.91,18.5,11.93Z"/><path class="cls-4" d="M18.06,11.23l0-.1c-.15-.34-.52.17-.19.22h.11C18,11.38,18.1,11.31,18.06,11.23Z"/><path class="cls-4" d="M20.23,12.2a.38.38,0,0,0,0,.29.11.11,0,0,0,.18,0,.38.38,0,0,0,.14-.25C20.65,12.05,20.26,12,20.23,12.2Z"/><path class="cls-4" d="M20.56,12.84c0-.18-.3-.22-.33,0a.42.42,0,0,1-.06.11.16.16,0,0,0,.16.23h.05a.2.2,0,0,0,.17-.15A.29.29,0,0,0,20.56,12.84Z"/><path class="cls-4" d="M15.74,10.77l-.19,0a.3.3,0,0,0-.24.39h0l0,0v0l0,0a.22.22,0,0,0,.24.1l.19,0C16.14,11.28,16.11,10.72,15.74,10.77Z"/><path class="cls-4" d="M14.05,12.19c-.31.15-.87.53-.66.94a.09.09,0,0,0,.11,0,.5.5,0,0,0,.25-.22,1.34,1.34,0,0,1,.46-.43C14.4,12.42,14.24,12.1,14.05,12.19Z"/><path class="cls-4" d="M11.55,13.16a.42.42,0,0,0-.17-.15.13.13,0,0,0-.17.06l0,0a.09.09,0,0,0,.06.13s.15,0,.17,0A.08.08,0,0,0,11.55,13.16Z"/><path class="cls-4" d="M14.74,13.81l-.19-.14a.24.24,0,1,0-.26.39l.2.12a.23.23,0,0,0,.27-.05l0-.05A.23.23,0,0,0,14.74,13.81Z"/><path class="cls-4" d="M17.63,14.64H17.5c-.21,0-.11.38.08.25l.1-.06A.1.1,0,0,0,17.63,14.64Z"/><path class="cls-4" d="M18.88,14.21l0,0a.13.13,0,0,0-.23,0l0,0C18.4,14.42,19,14.54,18.88,14.21Z"/><path class="cls-4" d="M12.27,12.52a.64.64,0,0,0-.57.52.2.2,0,0,0,.35.17.4.4,0,0,1,.26-.14C12.68,13,12.62,12.46,12.27,12.52Z"/><path class="cls-4" d="M10.59,14.11a0,0,0,0,0,0,.07S10.62,14.12,10.59,14.11Z"/><path class="cls-4" d="M9,14a.63.63,0,0,0-.46.36.11.11,0,0,0,.18.12A1,1,0,0,1,9,14.23.11.11,0,0,0,9,14Z"/><path class="cls-4" d="M3.37,18.67a0,0,0,0,0,0,0,5.13,5.13,0,0,1,1.78,1.5s0,0,0,0A3.74,3.74,0,0,0,3.37,18.67Z"/><path class="cls-4" d="M13.22,32.88A9.7,9.7,0,0,1,10.3,30s0,0,0,0a8,8,0,0,0,2.92,2.91S13.24,32.89,13.22,32.88Z"/><path class="cls-4" d="M22.71,35.19c-3.14,0-5.42-1.64-7.34-4-1.27-1.55-2.32-3.41-4-4.62,0,0-.07,0,0,0,1.69,2,3.29,4.26,5.16,6.14,1.65,1.67,3.76,3,6.19,2.5A0,0,0,0,0,22.71,35.19Z"/><path class="cls-4" d="M21.17,33.71c-1.82-.16-3.45-1.83-4.65-3.1,0,0,0,0,0,0,1.15,1.42,2.58,3.42,4.66,3.14C21.2,33.77,21.21,33.72,21.17,33.71Z"/><path class="cls-4" d="M18.76,17.54a0,0,0,0,0,0,.06A0,0,0,0,0,18.76,17.54Z"/><path class="cls-4" d="M29.89,12.71c-3.79.37-7.52,2.35-10.61,4.45a0,0,0,0,0,.05.08c3.37-2,6.93-3.09,10.58-4.43A0,0,0,0,0,29.89,12.71Z"/><path class="cls-4" d="M30.33,12.21a8.33,8.33,0,0,0-4.77.64s0,0,0,0a17.57,17.57,0,0,1,4.75-.55A.06.06,0,0,0,30.33,12.21Z"/><path class="cls-4" d="M30.17,25.77c-.18-.27-.42-.15-.7-.2a.18.18,0,0,0-.07.35c.28.06.45.26.72.08A.18.18,0,0,0,30.17,25.77Z"/><path class="cls-4" d="M31.06,25.31c-.07,0-.09.08-.06.13l.15.28a.1.1,0,0,0,.18,0A.27.27,0,0,0,31.06,25.31Z"/><path class="cls-4" d="M32.48,27.74c-.14-.3-.44-.45-.69-.64a.19.19,0,0,0-.26.29c.19.21.38.51.65.61S32.56,27.93,32.48,27.74Z"/><path class="cls-4" d="M33.66,28.57c-.08-.07-.19-.09-.28-.16a.2.2,0,0,0-.26.29.38.38,0,0,0,.53.1A.15.15,0,0,0,33.66,28.57Z"/><path class="cls-4" d="M33.27,26.17l-.1,0c-.35-.11-.47.52-.11.55h.11A.27.27,0,0,0,33.27,26.17Z"/><path class="cls-4" d="M34.65,26.59c-.21,0-.33.29-.12.36s.12.18.17.31a.18.18,0,0,0,.31.06C35.29,27,35,26.65,34.65,26.59Z"/><path class="cls-4" d="M29.92,29.22c-.05-.24-.24-.33-.45-.43a.22.22,0,0,0-.24.36.64.64,0,0,0,.55.29A.16.16,0,0,0,29.92,29.22Z"/><path class="cls-4" d="M32.67,30.39a.19.19,0,0,0-.17.34c.14.08.23.23.4.24s.14,0,.15-.1C33.09,30.62,32.87,30.49,32.67,30.39Z"/><path class="cls-4" d="M35,30.57c-.22-.05-.29.29-.07.34s.2.17.32.25a.17.17,0,0,0,.27-.14C35.5,30.75,35.23,30.63,35,30.57Z"/><path class="cls-4" d="M36,28.9a.25.25,0,0,0-.1.5A.25.25,0,0,0,36,28.9Z"/><path class="cls-4" d="M37.13,29.48c-.08-.25-.46-.12-.38.13a1.8,1.8,0,0,0,.24.55.14.14,0,0,0,.26-.09A1.87,1.87,0,0,0,37.13,29.48Z"/><path class="cls-4" d="M41.61,22.14c-.15,0-.29,0-.43-.07a.25.25,0,0,0-.21.43,1,1,0,0,0,.52.27A.32.32,0,0,0,41.61,22.14Z"/><path class="cls-4" d="M43.86,21.16a.91.91,0,0,0-.69-.13.21.21,0,0,0,0,.42c.19,0,.36.05.55,0A.2.2,0,0,0,43.86,21.16Z"/><path class="cls-4" d="M43.71,23.45l-.1-.06a.14.14,0,0,0,0,0,1.13,1.13,0,0,0,.26-.1c.15-.08.07-.29-.07-.32a1.42,1.42,0,0,0-.55,0,.24.24,0,0,0-.21.32.65.65,0,0,0,.09.18.24.24,0,0,0,0,.14.43.43,0,0,0,.56.4C43.94,23.9,43.89,23.56,43.71,23.45Z"/><path class="cls-4" d="M43.29,24.74l-.07,0a.16.16,0,0,0,0,.22l0,.06a.23.23,0,1,0,.06-.32Z"/><path class="cls-4" d="M40.61,24.38c-.24.15-.57,0-.76.25a.12.12,0,0,0,0,.12c.17.41.78.17,1.05,0S40.87,24.23,40.61,24.38Z"/><path class="cls-4" d="M38.16,23.47c-.26,0-.47-.06-.69.09a.16.16,0,0,0,0,.25c.19.22.47.12.74.09S38.43,23.42,38.16,23.47Z"/><path class="cls-4" d="M35.88,23.28c-.21.12-.46.09-.65.23a.1.1,0,0,0,0,.16c.24.19.57,0,.82-.07A.18.18,0,1,0,35.88,23.28Z"/><path class="cls-4" d="M39.75,21.46c-.15-.19-.37-.17-.6-.15s-.19.36,0,.34a2.36,2.36,0,0,0,.52,0A.11.11,0,0,0,39.75,21.46Z"/><path class="cls-4" d="M42.1,20.7a.73.73,0,0,0-.26,0c-.29,0-.23.51.09.41a.63.63,0,0,0,.19-.09C42.2,20.91,42.21,20.74,42.1,20.7Z"/><path class="cls-4" d="M46.21,29.56c-3.7.53-5.93-1.68-8.15-4.3,0,0-.08,0-.05,0,1.74,2.57,4.81,5.69,8.23,4.4C46.31,29.67,46.29,29.55,46.21,29.56Z"/><path class="cls-4" d="M45.89,28.54A6.8,6.8,0,0,1,41.25,27s-.05,0,0,0a5,5,0,0,0,4.69,1.62S45.93,28.54,45.89,28.54Z"/><path class="cls-4" d="M39,33.09c-1.15,1-2.13,2.17-3.73,2.41a9,9,0,0,1-5.47-1.19c-2.74-1.64-4-4.76-5.92-7.18,0,0,0,0,0,0,1.5,3,3.58,6.65,6.82,8s6.43,1,8.43-1.92C39.19,33.15,39.1,33,39,33.09Z"/><path class="cls-4" d="M34.92,33.61A7.36,7.36,0,0,1,28,30.33s-.07,0-.06,0a6.14,6.14,0,0,0,7,3.4C35,33.73,35,33.6,34.92,33.61Z"/><path class="cls-4" d="M23.08,20.52c-.08,0-.23.11-.31.05s-.46.12-.27.3a.64.64,0,0,0,.83.14A.28.28,0,0,0,23.08,20.52Z"/><path class="cls-4" d="M25.94,19.45a1,1,0,0,0-.54-.1c-.31,0-.26.52,0,.47.11,0,.12,0,.21.07C25.93,20.16,26.31,19.63,25.94,19.45Z"/><path class="cls-4" d="M27.25,19.32a.75.75,0,0,1-.15,0c-.13-.08-.24.1-.18.2a.29.29,0,0,0,.14.13.17.17,0,0,0,.2,0l0,0C27.33,19.46,27.34,19.35,27.25,19.32Z"/><path class="cls-4" d="M27.07,17.42,27,17.37c-.17-.21-.57-.06-.45.22a1.15,1.15,0,0,0,.15.27C27,18.25,27.49,17.62,27.07,17.42Z"/><path class="cls-4" d="M29.16,17.32a1.05,1.05,0,0,0-.55-.11c-.37,0-.27.61.11.51a.1.1,0,0,1,.14.06.28.28,0,0,0,.34,0l.05,0A.28.28,0,0,0,29.16,17.32Z"/><path class="cls-4" d="M31,18.1a.68.68,0,0,0-.18-.25c-.19-.18-.45.17-.21.31a.51.51,0,0,0,.26.1C31,18.27,31.06,18.19,31,18.1Z"/><path class="cls-4" d="M31.33,16.25a.18.18,0,0,0-.07.35A.18.18,0,0,0,31.33,16.25Z"/><path class="cls-4" d="M32,15.55c-.16-.1-.34.16-.18.27s.21.18.39.13a.11.11,0,0,0,.07-.11C32.21,15.67,32.12,15.65,32,15.55Z"/><path class="cls-4" d="M33.54,16.17a1,1,0,0,0-.25-.26.19.19,0,0,0-.26.29,1,1,0,0,0,.29.23A.18.18,0,0,0,33.54,16.17Z"/><path class="cls-4" d="M35.59,16.81c-.1-.14-.23-.17-.36-.28s-.38.06-.26.23.27.33.5.3A.16.16,0,0,0,35.59,16.81Z"/><path class="cls-4" d="M36.52,17.61a.69.69,0,0,0-.31-.37c-.29-.21-.65.2-.37.42a.74.74,0,0,0,.44.22A.22.22,0,0,0,36.52,17.61Z"/><path class="cls-4" d="M16.81,24.14a.32.32,0,0,0-.38.35,1.3,1.3,0,0,0-.24.37c-.07.17.12.37.29.25a1.38,1.38,0,0,0,.3-.33A.33.33,0,0,0,16.81,24.14Z"/><path class="cls-4" d="M14.58,24.67l-.06,0c-.26-.07-.32.32-.08.4l.06,0C14.75,25.15,14.84,24.74,14.58,24.67Z"/><path class="cls-4" d="M15.84,23.4l-.07,0a.16.16,0,0,0-.22.16.21.21,0,0,0-.09.16c0,.22-.1.41-.11.63s.14.16.21.11a.74.74,0,0,0,.3-.63C16,23.78,16.19,23.4,15.84,23.4Z"/><path class="cls-4" d="M15.3,26,15.2,26a.16.16,0,0,0-.31.11,2,2,0,0,0,.08.25C15.16,26.78,15.68,26.21,15.3,26Z"/><path class="cls-4" d="M17.15,26.17a.13.13,0,0,0-.17,0c-.1.09-.16.2-.25.29s.08.46.29.33S17.37,26.39,17.15,26.17Z"/><path class="cls-4" d="M17.85,25a1,1,0,0,0-.09-.2c-.05-.1-.2,0-.17.08a1,1,0,0,0,.09.2C17.73,25.2,17.88,25.12,17.85,25Z"/><path class="cls-4" d="M17.5,23.35a.7.7,0,0,0-.26.19.16.16,0,0,0,.17.25.54.54,0,0,0,.24-.13C17.79,23.54,17.69,23.25,17.5,23.35Z"/><path class="cls-4" d="M19.21,24.27c-.11-.23-.47-.12-.38.13a1.08,1.08,0,0,1,0,.46c0,.17.22.21.33.11A.62.62,0,0,0,19.21,24.27Z"/><path class="cls-4" d="M19.5,26.23c0-.2-.35-.23-.37,0a1.21,1.21,0,0,0,0,.43c0,.18.3.12.34,0A1.15,1.15,0,0,0,19.5,26.23Z"/><path class="cls-4" d="M19.54,27.88a.17.17,0,0,0-.32.07c0,.16,0,.27,0,.42a.14.14,0,0,0,.21.07C19.64,28.31,19.61,28.1,19.54,27.88Z"/><path class="cls-4" d="M19.26,28.81c0-.24-.43-.3-.46,0v0a.27.27,0,0,0,0,.32.25.25,0,0,0,.1.09.26.26,0,0,0,.37-.19A.7.7,0,0,0,19.26,28.81Z"/><path class="cls-4" d="M17.23,27.52c0,.11,0,.21,0,.31a.36.36,0,0,0,.67.13,3,3,0,0,0,.1-.3C18.09,27.2,17.29,27,17.23,27.52Z"/><path class="cls-4" d="M20,29a.21.21,0,0,0-.08.41A.21.21,0,0,0,20,29Z"/><path class="cls-4" d="M22,31c0-.13-.08-.25-.1-.38a.26.26,0,0,0-.52,0,.61.61,0,0,0,.29.56A.23.23,0,0,0,22,31Z"/><path class="cls-4" d="M23.25,32.88s-.06,0,0,0l0,.06a0,0,0,1,0,0,0Z"/><path class="cls-4" d="M23.8,33.54l0-.09c-.18-.48-.7.24-.25.29h.11A.16.16,0,0,0,23.8,33.54Z"/><path class="cls-4" d="M3.67,19.16a.35.35,0,0,0-.34,0,.22.22,0,0,0-.16.18.82.82,0,0,1,0,.21s0,0,0,0h0a.83.83,0,0,1-.14.32.18.18,0,0,0,0,.19.16.16,0,0,0,0,.31.16.16,0,0,0,.17-.24h0a.52.52,0,0,0,.32-.5h0A.26.26,0,0,0,3.67,19.16Z"/><path class="cls-4" d="M1.1,19.33,1,19.39c-.12.06-.11.27.05.26h.12C1.39,19.61,1.29,19.24,1.1,19.33Z"/><path class="cls-4" d="M1,21.41c0-.21-.3-.28-.33-.07s0,.75.29.92a.07.07,0,0,0,.1-.05C1.11,21.93,1,21.69,1,21.41Z"/><path class="cls-4" d="M3,21.7a1.93,1.93,0,0,0-.36,0c-.15,0-.13.22,0,.23a1.48,1.48,0,0,0,.33,0A.09.09,0,0,0,3,21.7Z"/><path class="cls-4" d="M4.2,22.06c-.09-.19-.41-.08-.32.11a1.11,1.11,0,0,0,.19.3.14.14,0,0,0,.23-.11A.82.82,0,0,0,4.2,22.06Z"/><path class="cls-4" d="M5.54,23.08c0-.26-.45-.15-.31.11l.06.1c.07.13.26,0,.25-.09S5.54,23.12,5.54,23.08Z"/><path class="cls-4" d="M4.53,21.93a1.07,1.07,0,0,0-.24,0c-.09,0-.1.11-.06.16a.58.58,0,0,0,.16.15C4.61,22.37,4.78,22,4.53,21.93Z"/><path class="cls-4" d="M3.52,21.4a.5.5,0,0,0-.2.17.1.1,0,0,0,.11.17.46.46,0,0,0,.23-.12A.13.13,0,0,0,3.52,21.4Z"/><path class="cls-4" d="M2.59,20.82c-.1.17-.29.19-.38.36a.13.13,0,0,0,.05.17c.28.11.5-.16.62-.39S2.7,20.64,2.59,20.82Z"/><path class="cls-4" d="M1.37,20.35a.5.5,0,0,0-.32-.08.16.16,0,0,0-.13.2.48.48,0,0,0,.18.28C1.36,21,1.69,20.53,1.37,20.35Z"/><path class="cls-4" d="M1.35,19.62a.5.5,0,0,0-.45.18.15.15,0,0,0,.16.24A1.45,1.45,0,0,1,1.37,20C1.6,19.95,1.56,19.63,1.35,19.62Z"/><path class="cls-4" d="M1,18.31a.31.31,0,0,0-.29,0c-.11,0,0,.22.06.18l.18,0A.08.08,0,0,0,1,18.31Z"/><path class="cls-4" d="M4.4,24.37v0a.25.25,0,1,0,0,.25l0,0A.21.21,0,0,0,4.4,24.37Z"/><path class="cls-4" d="M4.09,26a.66.66,0,0,0-.26-.26,1.36,1.36,0,0,0-.22-.13h0v0l0,0a.27.27,0,0,0-.36-.07l0,0a.27.27,0,0,0-.1.31c.1.3.61.48.9.45A.17.17,0,0,0,4.09,26Z"/><path class="cls-4" d="M7.24,25.93H7.15c-.31,0-.26.53,0,.47l.09,0C7.56,26.34,7.55,25.91,7.24,25.93Z"/><path class="cls-4" d="M8.48,26.88a.22.22,0,0,0-.42.15,1.24,1.24,0,0,0,.18.46.21.21,0,0,0,.37-.13A1.32,1.32,0,0,0,8.48,26.88Z"/><path class="cls-4" d="M6.79,23.77a.78.78,0,0,0-.15-.36.22.22,0,0,0-.36.24l.06.15a.24.24,0,0,0,.18.2.22.22,0,0,0,.12,0A.23.23,0,0,0,6.79,23.77Z"/><path class="cls-4" d="M1.34,22.65h0c.13-.21-.1-.52-.3-.34a.37.37,0,0,0,0,.61A.21.21,0,0,0,1.34,22.65Z"/><path class="cls-4" d="M6.06,26.74a.24.24,0,0,0-.09.47A.24.24,0,0,0,6.06,26.74Z"/><path class="cls-4" d="M7.12,29.09a.28.28,0,0,0-.11.55A.28.28,0,0,0,7.12,29.09Z"/><path class="cls-4" d="M14.55,19.51a11.53,11.53,0,0,0-3.92,3.34,0,0,0,0,0,0,0c.67-.24,1.08-.88,1.56-1.37a14.91,14.91,0,0,1,2.4-1.88C14.68,19.59,14.62,19.47,14.55,19.51Z"/><path class="cls-4" d="M37.56,17.76a16.34,16.34,0,0,1-4.48,2.49c-1.46.67-2.92,1.35-4.39,2a0,0,0,0,0,0,.06A53.07,53.07,0,0,0,34.58,20c1.11-.52,2.55-1,3.12-2.14C37.74,17.77,37.63,17.7,37.56,17.76Z"/><path class="cls-4" d="M29.34,19.48c-.11-.31-.44-.38-.74-.4a.14.14,0,0,0-.09.27,1.31,1.31,0,0,0,.73.28A.12.12,0,0,0,29.34,19.48Z"/><path class="cls-4" d="M32.74,18.31a.79.79,0,0,0-.32-.25c-.17-.09-.31.17-.14.27a.73.73,0,0,0,.35.14A.11.11,0,0,0,32.74,18.31Z"/><path class="cls-4" d="M36.1,15.42c-.15-.3-.5-.3-.79-.43a.13.13,0,0,0-.12.24c.25.14.48.43.79.37C36.05,15.59,36.14,15.51,36.1,15.42Z"/><path class="cls-4" d="M27,10.66a.78.78,0,0,0-.78-.11c-.15,0-.1.24,0,.28a4.51,4.51,0,0,1,.47.24C26.95,11.2,27.21,10.85,27,10.66Z"/><path class="cls-4" d="M21.69,9.51a1.39,1.39,0,0,0-.29-.18c-.12-.06-.23.08-.16.19s.17.37.4.32a.12.12,0,0,0,.1-.09V9.7A.21.21,0,0,0,21.69,9.51Z"/><path class="cls-4" d="M13.68,15.72a1.75,1.75,0,0,0-1.22-.21c-.12,0-.18.2-.05.26a1.79,1.79,0,0,0,1.24.11A.09.09,0,0,0,13.68,15.72Z"/><path class="cls-4" d="M8.65,15.27a1.35,1.35,0,0,0-.83-.12.12.12,0,0,0,0,.25,1.37,1.37,0,0,0,.84,0A.07.07,0,0,0,8.65,15.27Z"/><path class="cls-4" d="M9.8,8.39a2,2,0,0,0-1.39-.27.12.12,0,0,0,0,.22,2.7,2.7,0,0,0,.73.24,1.1,1.1,0,0,0,.66,0A.13.13,0,0,0,9.8,8.39Z"/><path class="cls-4" d="M12.31,6.77c-.08-.3-.42-.44-.68-.55a0,0,0,0,0,0,.05c.16.24.32.54.6.64C12.27,6.94,12.33,6.84,12.31,6.77Z"/><path class="cls-4" d="M5.16,6.12a.57.57,0,0,0-.56,0,.12.12,0,0,0,.08.22c.26-.07.36.18.54.26a.11.11,0,0,0,.16-.08A.37.37,0,0,0,5.16,6.12Z"/><path class="cls-4" d="M3.59,9.32a.1.1,0,0,0-.16,0,1.38,1.38,0,0,0-.22,1,.12.12,0,0,0,.23,0A1.38,1.38,0,0,0,3.59,9.32Z"/><path class="cls-4" d="M2.72,6.15c-.2-.19-.49,0-.68.09a1.12,1.12,0,0,0-.4.68c0,.06.08.11.12.06a1.29,1.29,0,0,1,.59-.44c.16-.07.3-.08.41-.23A.12.12,0,0,0,2.72,6.15Z"/><path class="cls-4" d="M5.83,24.58a.24.24,0,0,0-.47,0,1.12,1.12,0,0,0,.06.79.17.17,0,0,0,.26,0A.82.82,0,0,0,5.83,24.58Z"/><path class="cls-4" d="M2.49,23a.18.18,0,0,0-.34-.07,2.07,2.07,0,0,0-.23,1.28.16.16,0,0,0,.31.06A2.12,2.12,0,0,0,2.49,23Z"/><path class="cls-4" d="M4.84,28.36a1,1,0,0,0-1.09-.52.09.09,0,0,0,0,.18,11,11,0,0,0,1,.49A.11.11,0,0,0,4.84,28.36Z"/><path class="cls-4" d="M9.24,30.68a1.16,1.16,0,0,0-.83-.4.1.1,0,0,0-.08.1,1.07,1.07,0,0,0,.64.71A.25.25,0,0,0,9.24,30.68Z"/><path class="cls-4" d="M9.11,28.26c-.14-.05-.31.09-.21.24a1.42,1.42,0,0,0,.37.47.12.12,0,0,0,.16-.05C9.6,28.63,9.37,28.35,9.11,28.26Z"/><path class="cls-4" d="M11.53,32c-.24-.4-.77-.47-1.18-.62a.14.14,0,0,0-.13.26c.36.24.74.62,1.21.57A.14.14,0,0,0,11.53,32Z"/></g></svg>