<svg id="Capa_1" data-name="Capa 1" xmlns="http://www.w3.org/2000/svg" xmlns:xlink="http://www.w3.org/1999/xlink" viewBox="0 0 144 111"><defs><style>.cls-1{fill:none;}.cls-2,.cls-3{fill:#211915;}.cls-3{stroke:#211915;stroke-miterlimit:10;}.cls-4{clip-path:url(#clip-path);}.cls-5{fill:#fff;}</style><clipPath id="clip-path"><circle class="cls-1" cx="71.7" cy="22.29" r="21.78"/></clipPath></defs><title>Mesa de trabajo 1</title><path class="cls-2" d="M34.55,46.88A8.25,8.25,0,0,1,40,48.81a5.94,5.94,0,0,1,2.27,4.68,5.85,5.85,0,0,1-1.83,4.27A8,8,0,0,1,35.86,60a3.88,3.88,0,0,1,3.33,2.43l2.41,4.82q2.25,4.56,5.24,4.56v.7H38.1a11.29,11.29,0,0,0-1.29-4.64l-2.23-5a4.88,4.88,0,0,0-1.74-2A5,5,0,0,0,30,60.1h-.7V68.6q0,3.18,3.18,3.18v.7H21.59v-.7q3.18,0,3.18-3.18V50.82q0-3.22-3.18-3.22v-.72ZM29.29,59.33h1.66a7,7,0,0,0,4.82-1.66,5.55,5.55,0,0,0,0-8.3,7,7,0,0,0-4.82-1.66H29.29Z"/><path class="cls-2" d="M63.07,56.83a9.67,9.67,0,0,1,2.45,6.61,9.27,9.27,0,0,1-2.66,6.7,8.43,8.43,0,0,1-6.3,2.74,8.23,8.23,0,0,1-6.17-2.64,9,9,0,0,1-2.5-6.47,9.55,9.55,0,0,1,2.51-6.7,8.33,8.33,0,0,1,6.49-2.76A8,8,0,0,1,63.07,56.83Zm-9.32.86a13.74,13.74,0,0,0-1.21,6,13.05,13.05,0,0,0,1.21,5.89Q55,72,56.71,72t3-2.48A13.25,13.25,0,0,0,61,63.46a14.09,14.09,0,0,0-1.08-6,3.33,3.33,0,0,0-3-2.29Q55,55.18,53.75,57.69Z"/><path class="cls-2" d="M119.22,56.83a9.66,9.66,0,0,1,2.44,6.61,9.26,9.26,0,0,1-2.66,6.7,8.43,8.43,0,0,1-6.29,2.74,8.25,8.25,0,0,1-6.17-2.64,9,9,0,0,1-2.5-6.47,9.55,9.55,0,0,1,2.52-6.7A8.33,8.33,0,0,1,113,54.31,8,8,0,0,1,119.22,56.83Zm-9.32.86a13.77,13.77,0,0,0-1.21,6,13.09,13.09,0,0,0,1.21,5.89q1.22,2.38,3,2.37t3-2.48a13.22,13.22,0,0,0,1.26-6.07,14.17,14.17,0,0,0-1.07-6,3.34,3.34,0,0,0-3-2.29Q111.14,55.18,109.89,57.69Z"/><path class="cls-2" d="M79.64,47.34a4.76,4.76,0,0,0,.42,1.71l8.11,18.28,8.15-20,7.26,0v.7q-3.18,0-3.19,3.19V68.81q0,3.2,3.19,3.2v.68H92.81V72Q96,72,96,68.81V50.11L86.76,72.66H85.49L75.33,50.11v18.7q0,3.27,3.15,3.31v.57H71.35v-.61q3.19,0,3.19-3.27V51.24q0-3.18-3.19-3.19v-.7Z"/><path class="cls-2" d="M123.93,64.35s0-3.41,9.25-1.22c0,0,8.58,1.22,9.07-2.86,0,0-.55-1.55-1.83.26,0,0-.73.75-1.1,0,0,0-1-1.41,1.89-1.78,0,0,3.71-.18,1.94,3.9,0,0-1.88,4.62-11.8,1.7a13.52,13.52,0,0,0-7.42.18"/><path class="cls-2" d="M137.22,65.69a21.35,21.35,0,0,1-6-1,13.3,13.3,0,0,0-7.22.18l-.14-.53h-.32a1.9,1.9,0,0,1,.81-1.41c1.46-1.15,4.45-1.21,8.87-.16.33,0,5.53.7,7.73-1a2.24,2.24,0,0,0,.9-1.47c-.06-.12-.18-.28-.31-.3s-.35,0-.85.72l0,0a1.34,1.34,0,0,1-1,.43.86.86,0,0,1-.63-.5,1.28,1.28,0,0,1-.14-1.19c.26-.61,1-1,2.29-1.14h0a3,3,0,0,1,2.43,1c.55.79.5,1.92-.12,3.37C143.43,62.94,142.24,65.69,137.22,65.69Zm-9-2.12a10.7,10.7,0,0,1,3.28.43c9.48,2.79,11.33-1.45,11.35-1.5.52-1.21.59-2.11.2-2.67a2.27,2.27,0,0,0-1.78-.72c-1.33.17-1.63.54-1.7.7a.57.57,0,0,0,.08.5l0,.05c0,.08.07.12.1.13a.71.71,0,0,0,.38-.2c.53-.74,1-1.07,1.53-1a1.31,1.31,0,0,1,.92.85l0,.08v.09a3,3,0,0,1-1.2,2.05c-2.5,1.92-8.05,1.16-8.29,1.12h0c-5.46-1.29-7.5-.56-8.23,0a1.56,1.56,0,0,0-.47.55A16.28,16.28,0,0,1,128.2,63.57Z"/><path class="cls-2" d="M21.06,60.85s-1.3-2.92-5.92-.57c0,0-3.81,1.7-5.76,2.27,0,0-5.92,1.68-7.87-1.59,0,0,.08-2-1-.76,0,0-1,4.95,5.92,4.46a33.09,33.09,0,0,0,8.68-3.33s3.41-2.27,5,.24C20.17,61.59,20.9,62.64,21.06,60.85Z"/><path class="cls-2" d="M5.54,65.19c-2.15,0-3.7-.57-4.63-1.7a4.37,4.37,0,0,1-.85-3.37l0-.13.08-.1a1.36,1.36,0,0,1,.94-.56.74.74,0,0,1,.53.23A2,2,0,0,1,2,60.83c.73,1.11,2.11,1.67,4.11,1.67h0a12.94,12.94,0,0,0,3.14-.41c1.84-.54,5.46-2.14,5.68-2.24a7.73,7.73,0,0,1,3.42-1,3.35,3.35,0,0,1,3.16,1.77l.05.12v.13c0,.37-.13,1.48-.94,1.48h0a1.11,1.11,0,0,1-.83-.52,2,2,0,0,0-1.78-1,5.53,5.53,0,0,0-2.58.86l0,0a33.21,33.21,0,0,1-8.82,3.38H6.49C6.16,65.18,5.84,65.19,5.54,65.19ZM1,60.45a3.37,3.37,0,0,0,.67,2.42c.85,1,2.45,1.47,4.73,1.31A33.25,33.25,0,0,0,14.83,61,57,57,0,0,1,9.51,63a13.94,13.94,0,0,1-3.41.45h0c-2.4,0-4.14-.78-5-2.26L1,61.09v-.14A2.88,2.88,0,0,0,1,60.45Zm17-.53a3,3,0,0,1,2.53,1.31,2.69,2.69,0,0,0,0-.27,2.47,2.47,0,0,0-2.21-1.1,4.45,4.45,0,0,0-.87.09A3.82,3.82,0,0,1,18,59.91Z"/><path class="cls-3" d="M35.74,79.86Q34.57,85,34.41,85.74a3.64,3.64,0,0,1,3.08-2.34h.33A2.37,2.37,0,0,1,40,84.86a5.42,5.42,0,0,1,.21,3.74,7.57,7.57,0,0,1-2.09,3.89A4.71,4.71,0,0,1,34.9,94a3,3,0,0,1-2.14-1l-.93,3.94c-.27,1.18,0,1.9.89,2.18l-.09.37H27.39l.09-.37a2.59,2.59,0,0,0,1.86-2.18L32.5,83.24a5.92,5.92,0,0,1-3.14,2.9l-.15-.47a6.57,6.57,0,0,0,2.48-2.12,9.42,9.42,0,0,0,1.58-3.67Zm.52,12.19a9.61,9.61,0,0,0,1.3-2.95,10.75,10.75,0,0,0,.3-3c-.07-1.08-.38-1.67-1-1.78s-1.22.28-1.82,1.15a9.48,9.48,0,0,0-1.19,2.74l-.49,2.13q-.61,3,.94,3A2.33,2.33,0,0,0,36.26,92.05Z"/><path class="cls-3" d="M49.26,84.46a1.13,1.13,0,0,0,.92.35q.61,0,1.4-1.34H52L50.11,91.4c-.26,1-.25,1.52,0,1.59q.73.14,1.27-2.39h.5q-.29,3.45-2.48,3.29A1.8,1.8,0,0,1,48,93.1a2.45,2.45,0,0,1-.12-2,5.42,5.42,0,0,1-1.43,2.06,3,3,0,0,1-2.19.77,2.44,2.44,0,0,1-2.2-1.46,5.44,5.44,0,0,1-.21-3.67,7.89,7.89,0,0,1,2.06-3.87,4.67,4.67,0,0,1,3.23-1.48A2.62,2.62,0,0,1,49.26,84.46Zm-3.43.94a10.37,10.37,0,0,0-1.28,2.9,10.87,10.87,0,0,0-.29,3c.06,1.06.38,1.64.95,1.75s1.21-.27,1.78-1.13a8.35,8.35,0,0,0,1.17-2.68l.48-2.08q.63-2.92-.92-3A2.26,2.26,0,0,0,45.83,85.41Z"/><path class="cls-3" d="M57,86.38q1.37-3,3.69-3a2.5,2.5,0,0,1,2.13,1,2.82,2.82,0,0,1,.32,2.55l-1.23,4.74q-.4,1.55,0,1.63c.5.1.92-.71,1.29-2.44h.53q-.4,3.48-2.59,3.32a1.81,1.81,0,0,1-1.41-.72,2.72,2.72,0,0,1-.09-2.11l1-3.84a4.16,4.16,0,0,0,.16-2.59.86.86,0,0,0-1.09-.53c-.7.13-1.38.79-2,2s-1.44,3.79-2.1,7.46H53.15L55,85.91q.36-1.51,0-1.61-.7-.18-1.3,2.42h-.51q.44-3.55,2.72-3.33Q57.74,83.56,57,86.38Z"/><path class="cls-3" d="M72,84.46a1.11,1.11,0,0,0,.92.35c.4,0,.87-.45,1.39-1.34h.38L72.86,91.4c-.26,1-.25,1.52,0,1.59q.73.14,1.27-2.39h.5q-.29,3.45-2.47,3.29a1.8,1.8,0,0,1-1.42-.78,2.45,2.45,0,0,1-.12-2,5.39,5.39,0,0,1-1.43,2.06,3,3,0,0,1-2.19.77,2.44,2.44,0,0,1-2.2-1.46,5.37,5.37,0,0,1-.21-3.67,7.9,7.9,0,0,1,2.06-3.87,4.67,4.67,0,0,1,3.23-1.48A2.63,2.63,0,0,1,72,84.46Zm-3.44.94a10.18,10.18,0,0,0-1.28,2.9,10.68,10.68,0,0,0-.29,3c.06,1.06.38,1.64,1,1.75s1.2-.27,1.78-1.13a8.52,8.52,0,0,0,1.17-2.68l.47-2.08q.64-2.92-.92-3A2.27,2.27,0,0,0,68.58,85.41Z"/><path class="cls-3" d="M83.51,84.47l1.06-4.59q.42-1.77-1-1.42l.12-.38,4-.91q-1.92,8.3-3.34,14.24c-.23,1-.22,1.56.05,1.62q.73.15,1.26-2.42h.51q-.32,3.45-2.52,3.29a1.75,1.75,0,0,1-1.41-.78,2.45,2.45,0,0,1-.1-2,5.39,5.39,0,0,1-1.43,2.06,3,3,0,0,1-2.19.77,2.46,2.46,0,0,1-2.21-1.45,5.38,5.38,0,0,1-.2-3.68,7.81,7.81,0,0,1,2.06-3.86,4.61,4.61,0,0,1,3.22-1.47A2.9,2.9,0,0,1,83.51,84.47Zm-3.45.93a9.31,9.31,0,0,0-1.27,2.9,11.16,11.16,0,0,0-.3,3c.06,1.06.38,1.64,1,1.75s1.21-.27,1.78-1.13a8.59,8.59,0,0,0,1.18-2.68l.48-2.08q.63-2.92-.92-3A2.34,2.34,0,0,0,80.06,85.41Z"/><path class="cls-3" d="M96.08,84a1.87,1.87,0,0,1,.84,1.72,2.87,2.87,0,0,1-.69,1.8,4.68,4.68,0,0,1-1.66,1.31,10.63,10.63,0,0,1-2.14.79,13.74,13.74,0,0,1-2.3.37q-.22,3,1.6,3.33a3.08,3.08,0,0,0,2.45-.68,7.63,7.63,0,0,0,2.21-2.83h.46a8.47,8.47,0,0,1-2.28,3.14A5,5,0,0,1,91.39,94a3.66,3.66,0,0,1-3.18-1.47,4.62,4.62,0,0,1-.55-3.64,6.88,6.88,0,0,1,2.24-3.82,7.27,7.27,0,0,1,1.94-1.19,5.81,5.81,0,0,1,2.07-.48A3.51,3.51,0,0,1,96.08,84Zm-4.63,1.87a8.9,8.9,0,0,0-1.29,3.66A8.69,8.69,0,0,0,92.6,89a3.39,3.39,0,0,0,1.67-1.42A3.46,3.46,0,0,0,94.78,85q-.25-1.08-1.14-1Q92.53,84.08,91.45,85.83Z"/><path class="cls-3" d="M101.58,85.56a2.85,2.85,0,0,1,2-2,2.45,2.45,0,0,1,1.5.11,2.52,2.52,0,0,1,1.17.88,2.06,2.06,0,0,1,.37,1.11,1.09,1.09,0,0,1-.21.81.86.86,0,0,1-.74.24.89.89,0,0,1-.59-.39,3.92,3.92,0,0,1-.33-.74,3.14,3.14,0,0,0-.35-.87.86.86,0,0,0-.71-.38,1.55,1.55,0,0,0-1.18.61,9.73,9.73,0,0,0-1.21,3.41l-1.27,5.46H97.61L99.38,86q.36-1.49,0-1.59-.72-.17-1.29,2.4h-.51q.42-3.34,2.52-3.31Q101.67,83.5,101.58,85.56Z"/><path class="cls-3" d="M109,85.92c.23-1,.2-1.52-.09-1.57q-.72-.16-1.19,2.39h-.51q.29-3.46,2.48-3.3a1.94,1.94,0,0,1,1.47.72,2.48,2.48,0,0,1,.22,2.12l-1.17,5.16q-.34,1.49.08,1.58.72.15,1.2-2.39H112q-.29,3.46-2.49,3.3A2,2,0,0,1,108,93.2a2.41,2.41,0,0,1-.22-2.11c.34-1.45.6-2.61.79-3.47Zm1.3-5.9-2.45,2.18-.41-.32,2.06-3.21h2.27Z"/><path class="cls-3" d="M120.75,84.46a1.12,1.12,0,0,0,.92.35q.6,0,1.4-1.34h.38L121.6,91.4q-.39,1.49,0,1.59.73.14,1.27-2.39h.5q-.29,3.45-2.48,3.29a1.81,1.81,0,0,1-1.42-.78,2.48,2.48,0,0,1-.11-2,5.46,5.46,0,0,1-1.43,2.06,3,3,0,0,1-2.19.77,2.43,2.43,0,0,1-2.2-1.46,5.38,5.38,0,0,1-.21-3.67,7.87,7.87,0,0,1,2.06-3.87,4.66,4.66,0,0,1,3.22-1.48A2.62,2.62,0,0,1,120.75,84.46Zm-3.44.94A10.11,10.11,0,0,0,116,88.3a10.67,10.67,0,0,0-.29,3c.07,1.06.38,1.64,1,1.75s1.2-.27,1.77-1.13a8.32,8.32,0,0,0,1.17-2.68l.48-2.08q.64-2.92-.92-3A2.26,2.26,0,0,0,117.31,85.41Z"/><circle class="cls-2" cx="71.92" cy="22.12" r="21.79"/><path class="cls-2" d="M72.73,61.21v1.85H66.8V61.21Z"/><g class="cls-4"><path class="cls-5" d="M99.12,20.69c-2.54-2.29-6.19-2.14-9.27-1.26l-.23.07c1.1-2.27-1.15-4.8-3.16-5.58a7.75,7.75,0,0,0-3.36-.47.39.39,0,0,0,0-.17c.08-3.11-4.07-4.76-6.57-5.22a23.1,23.1,0,0,0-10.42.6c-1.26-2.89-4.74-4-7.64-4.21a20.91,20.91,0,0,0-4.24.16c-2.47-7-12.59-7.67-18.78-5.33C31.11-4.27,24.77-4.51,19.56-3A27.85,27.85,0,0,0,15-1.2c-4.31-1.4-8.79-.47-13,1C-1.75,1.12-6.32,3-8.78,6.37h0l0,0a.12.12,0,0,0,0,.09l0,0a.19.19,0,0,0,0,.2.28.28,0,0,0,0,.25c.17.28.33.56.5.84a16.83,16.83,0,0,0,1.08,2c1.26,2.45,2.41,4.93,4.45,6.94a17.44,17.44,0,0,0,9.59,4.79H6.8a2.2,2.2,0,0,0,.46.22.24.24,0,0,0,.23-.08l0,0a15.5,15.5,0,0,0,1.42,1.95,10.41,10.41,0,0,0,10.79,3,.4.4,0,0,0,.13-.07c3.57,2.09,8,3.16,11.72,2a.25.25,0,0,0,.19-.25l.16.18a17.11,17.11,0,0,0,9.66,5c2.8.43,6.41.3,8.51-1.86a15.26,15.26,0,0,0,3.24,2.55,14.64,14.64,0,0,0,4.87,2.2,12.1,12.1,0,0,0,8.44-1.31l.65.43a12,12,0,0,0,5.59,2.42,7.44,7.44,0,0,0,5.26-1l.18-.06a2.66,2.66,0,0,0,.44-.2,11.13,11.13,0,0,0,7.53.88c2.3-.55,4.94-2.34,5.15-4.89,3.15,0,6.51-1,8.34-3.78A6.19,6.19,0,0,0,99.12,20.69ZM7.83,20.55l-.07-.12v0c.67.87,1.34,1.73,2.05,2.56A12.73,12.73,0,0,0,12,25,11.64,11.64,0,0,1,7.83,20.55Zm7.3,5.18c-3-.7-5.42-4.3-7.26-6.57A38.86,38.86,0,0,0,1.3,12.61c-.48-.39-1-.77-1.49-1.12a.15.15,0,0,0-.19,0,.25.25,0,0,0-.11.41l1.92,1.71A35.15,35.15,0,0,1,5.22,18c.4.57.77,1.16,1.14,1.77-3.87-.1-7.22-2.53-9.62-5.41A34.26,34.26,0,0,1-6,10.46c-.17-.28-.34-.57-.5-.86A19.88,19.88,0,0,0-7.59,7.7c-.09-.14-.18-.26-.28-.39l-.31-.41c-.06-.08-.12-.17-.18-.24h0l-.05,0A31.15,31.15,0,0,1-4,3.25,33.64,33.64,0,0,1,1.52.73C5.5-.7,9.82-1.79,14-.67Q12.89-.09,11.85.56c-1.29.8-2.49,1.72-3.76,2.55a12.26,12.26,0,0,1-2.4,1.28A7.58,7.58,0,0,0,4.25,5l-.33-.06c-.18,0-.31.26-.11.33,3.77,1.4,5.29,5.08,6.73,8.54,1.35,3.24,2.65,6.58,5,9.24a16.69,16.69,0,0,0,1.84,1.75A2.8,2.8,0,0,1,15.13,25.73Zm12.21,1.38-.36.08a14.5,14.5,0,0,1-7.44-2.14,24.39,24.39,0,0,1-6.27-6.92c-1.28-2.59-2.18-5.37-3.5-7.95-1-2-2.42-4-4.49-4.9,1.78-.21,3.71-1.82,5-2.7a35.89,35.89,0,0,1,7.53-4.1c5.66-2.16,11.55-2,16.7,1.19l-.34.16C30.73,1.57,28,4.29,24.85,6.47A27.87,27.87,0,0,1,19,9.57c-2.33.91-5.27,2.45-7.79,1.82a.19.19,0,0,0-.11.35c1.63.69,3.29.26,4.91-.26A46.46,46.46,0,0,0,21,9.61c.92.57,3.09,4.27,3.33,4.74.92,1.73,1.65,3.56,2.42,5.36a43.47,43.47,0,0,0,2.52,5.15A2.71,2.71,0,0,1,27.35,27.11ZM47,31.54a.43.43,0,0,0,0,.12l-.39.14a3.34,3.34,0,0,0,.71-1.23A7.08,7.08,0,0,1,47,31.54Zm10.84,3.79a12.33,12.33,0,0,1-2.21-.82l.88.3a20.65,20.65,0,0,0,4.49.88A11,11,0,0,1,57.84,35.33Zm3.46-.61a16.86,16.86,0,0,1-5.47-1.08,17.18,17.18,0,0,1-8.12-6.48,55.42,55.42,0,0,1-5.11-9.57c-1-2.35-2.21-4.92-4.64-6.09-.18-.09-.37.18-.2.31,2.93,2.29,4,5.73,5.45,9a45.7,45.7,0,0,0,3,5.8.14.14,0,0,0,0,.06,7.71,7.71,0,0,1,.47,3.22A3.46,3.46,0,0,1,45,32.22a12.13,12.13,0,0,1-4.62-.11c-3-.63-5.33-2.31-7.62-4.14a19.54,19.54,0,0,1-3.42-4.73c-1.64-3.11-2.73-6.48-4.44-9.56a19,19,0,0,0-3.3-4.35l.27-.12c3.31-1.62,6-4.09,9-6.26A17.72,17.72,0,0,1,42.16-1a15.85,15.85,0,0,1,7,1.43,12.13,12.13,0,0,1,4.31,4.3A30.38,30.38,0,0,0,47.4,6.48C43.59,8,39.71,9.52,36,11.32a33.17,33.17,0,0,0-4.67,2.75c-1.23.87-2.94,1.9-3.64,3.27a.25.25,0,0,0,.31.35c1.28-.52,2.29-1.7,3.41-2.51a36.36,36.36,0,0,1,4-2.53c3.2-1.73,6.66-3,10-4.41,6-2.53,15.1-5.57,19.83.67a95.29,95.29,0,0,0-11.54,5.42c-2.76,1.39-6.69,3.19-8.17,6.08a.18.18,0,0,0,.27.23c1.29-.88,2.35-2.06,3.65-3,.24-.16.49-.32.74-.48a6.92,6.92,0,0,1,5.54,3.19c.67.89,1.25,1.91,1.89,2.88a43.87,43.87,0,0,0,5,8.06,20.09,20.09,0,0,0,3.11,3C64.28,34.37,62.82,34.76,61.3,34.72Zm38-7-.11.18A9.54,9.54,0,0,1,94.12,31a4.54,4.54,0,0,1-1.6,0,3.26,3.26,0,0,1-.78-.25,8.48,8.48,0,0,1-1.11-.68,7.88,7.88,0,0,0-.56-.64,55.07,55.07,0,0,0-5-4.74c-.14-.11-.37.06-.25.22.94,1.19,2,2.29,3,3.39l.12.12c.22.29.46.57.71.84s.35.52.51.79a4.36,4.36,0,0,1,.78,3.1,5.84,5.84,0,0,1-.26.92A5.24,5.24,0,0,1,87.44,36a9.05,9.05,0,0,1-4,.75,9.66,9.66,0,0,1-4.25-1,.23.23,0,0,0-.15-.08h0a10.06,10.06,0,0,1-3.57-3.27c-2.69-4-4-8.83-8.87-10.75a.25.25,0,0,0-.22.44,15.05,15.05,0,0,1,6,6.46.22.22,0,0,0-.24.28c0,.13,0,.22.07.34a.15.15,0,0,0,.17.06.32.32,0,0,0,.2-.29c.1.2.21.39.31.59.44.85.89,1.71,1.38,2.53a5.3,5.3,0,0,1,.21,2.13A2.19,2.19,0,0,1,73.21,36a5.81,5.81,0,0,1-1,.33A13.51,13.51,0,0,1,67,34.14l-.1-.07a21.07,21.07,0,0,1-5.3-5.45c-.54-1.24-1.33-2.39-2-3.58-.83-1.54-1.51-3.16-2.31-4.72a15.31,15.31,0,0,0-2.27-3.4,6.37,6.37,0,0,0-1.73-1.49l.05,0c3.25-1.69,6.58-3.29,9.9-4.84,5.24-2.43,16.55-4.24,19.18,2.84a.37.37,0,0,0,0,.08A23.42,23.42,0,0,0,77,15.09c-5.94,2.29-12.63,5.06-16.58,10.31a.16.16,0,0,0,.25.22A44,44,0,0,1,74.35,17a34.16,34.16,0,0,1,7.73-2.64,7.31,7.31,0,0,1,4.75.67,4.27,4.27,0,0,1,2.1,3.13,2.49,2.49,0,0,1-.65,1.3,8.33,8.33,0,0,1-.87.74c-1.26.45-2.51.94-3.76,1.41A60.22,60.22,0,0,0,77,24.36c-.23.12,0,.42.18.37a87.24,87.24,0,0,0,9.8-3.43c3-1.09,6.26-2.33,9.43-1.23A5.16,5.16,0,0,1,99.29,27.72Z"/><path class="cls-5" d="M37.81,12.65s-.09,0-.05.06c3.33,3.47,3.92,8.17,6.39,12.11,0,0,0,0,0,0C42.08,20.86,41.27,15.72,37.81,12.65Z"/><path class="cls-5" d="M45.23,30.83a14.25,14.25,0,0,1-10.6-3c-2.8-2.25-4.37-5.26-5.77-8.48h0c1.75,7,8.89,13.35,16.41,11.66C45.34,31,45.31,30.82,45.23,30.83Z"/><path class="cls-5" d="M33,24.25s0,0,0,0a13.72,13.72,0,0,0,8.39,5.38s0,0,0,0A16.83,16.83,0,0,1,33,24.25Z"/><path class="cls-5" d="M36.19,25.61a0,0,0,0,0,0,0,7.66,7.66,0,0,0,3.64,2.05,0,0,0,0,0,0,0A10.05,10.05,0,0,1,36.19,25.61Z"/><path class="cls-5" d="M63.91,33.85c-3.58-.39-6.84-.65-10-2.61-3.42-2.13-5.27-5.23-7.64-8.35,0,0-.06,0,0,0A58.69,58.69,0,0,0,49.68,28a17.14,17.14,0,0,0,3.94,3.31c2.89,1.78,6.84,3.35,10.29,2.76C64,34,64,33.86,63.91,33.85Z"/><path class="cls-5" d="M52.43,28.78a22.67,22.67,0,0,1-3.71-4.2s-.06,0,0,0a11.1,11.1,0,0,0,3.71,4.24S52.46,28.81,52.43,28.78Z"/><path class="cls-5" d="M24.77,16.1c-.92-1.82-1.83-4.12-3.55-5.32,0,0-.06,0,0,0a20.37,20.37,0,0,1,3.38,5.41,38.18,38.18,0,0,1,2.34,5.93s.1,0,.09,0A22.22,22.22,0,0,0,24.77,16.1Z"/><path class="cls-5" d="M24.81,18.6s0,0,0,0c.45,1.13.85,2.28,1.39,3.37a0,0,0,0,0,0,0C25.83,20.81,25.29,19.71,24.81,18.6Z"/><path class="cls-5" d="M32.33,22.14c-.64-1.17-1.49-2.23-2.1-3.42,0,0-.09,0-.07,0a8.85,8.85,0,0,0,2.08,3.47C32.29,22.28,32.36,22.2,32.33,22.14Z"/><path class="cls-5" d="M44.14,11.78a.5.5,0,0,0-.25.27.31.31,0,0,0,.3.44.52.52,0,0,0,.35-.12A.35.35,0,0,0,44.14,11.78Z"/><path class="cls-5" d="M46.51,10.2a.36.36,0,0,0-.36.07c-.26.16,0,.58.27.39s.18-.14.2-.3A.15.15,0,0,0,46.51,10.2Z"/><path class="cls-5" d="M47.85,10.53a.83.83,0,0,0-.2-.21c-.2-.16-.46.14-.26.3a.79.79,0,0,0,.25.15C47.79,10.83,48,10.68,47.85,10.53Z"/><path class="cls-5" d="M49.34,10.8c-.12-.19-.44,0-.35.17s.11.33.33.37a.12.12,0,0,0,.14-.07C49.54,11.07,49.45,11,49.34,10.8Z"/><path class="cls-5" d="M48,12.44c0-.19-.31-.21-.34-.39-.07-.37-.64-.34-.59,0s.37.82.76.63A.25.25,0,0,0,48,12.44Z"/><path class="cls-5" d="M50.57,9.45A2.08,2.08,0,0,0,50,9.33c-.51,0-.47.85.06.81a2.33,2.33,0,0,0,.51-.14C50.9,9.92,50.82,9.53,50.57,9.45Z"/><path class="cls-5" d="M52.59,8.07a1.16,1.16,0,0,0-.69-.28.34.34,0,1,0,0,.67,1.16,1.16,0,0,0,.72-.18A.14.14,0,0,0,52.59,8.07Z"/><path class="cls-5" d="M54.39,8a.21.21,0,0,0-.19.38c.18.09.3.28.51.31a.15.15,0,0,0,.17-.12C54.89,8.25,54.63,8.09,54.39,8Z"/><path class="cls-5" d="M56.59,9.06a.14.14,0,0,0-.15-.13c-.2,0-.32.15-.49.26a1.91,1.91,0,0,1-.65.26.22.22,0,0,0-.16.12h0a.26.26,0,0,0-.1.51.24.24,0,0,0,.25-.1.26.26,0,0,0,.2,0C55.87,9.87,56.61,9.55,56.59,9.06Z"/><path class="cls-5" d="M57.13,6.54a.32.32,0,0,0-.12.63A.32.32,0,0,0,57.13,6.54Z"/><path class="cls-5" d="M58.5,6.4c-.09-.22-.27-.28-.47-.41s-.54.35-.23.46a.93.93,0,0,0,.62.11A.13.13,0,0,0,58.5,6.4Z"/><path class="cls-5" d="M59.88,6.65a2.24,2.24,0,0,0-.74-.14.12.12,0,0,0,0,.24,2.22,2.22,0,0,0,.73.15A.13.13,0,0,0,59.88,6.65Z"/><path class="cls-5" d="M60.75,7.37l-.19-.1c-.3-.17-.42.43-.08.39l.21,0A.14.14,0,0,0,60.75,7.37Z"/><path class="cls-5" d="M51.94,11a.54.54,0,0,0-.52,0c-.3.15-.16.62.18.51a.56.56,0,0,0,.4-.34A.14.14,0,0,0,51.94,11Z"/><path class="cls-5" d="M60.4,16.17c-.05-.27-.42-.22-.61-.22-.51,0-.33.89.14.67C60.12,16.53,60.46,16.44,60.4,16.17Z"/><path class="cls-5" d="M63.37,13.85l-.17.06c-.37.18-.16.79.21.61a1.29,1.29,0,0,0,.23-.13A.31.31,0,0,0,63.37,13.85Z"/><path class="cls-5" d="M66,12.94a.58.58,0,0,0-.32-.08c-.4,0-.22.73.16.47a.52.52,0,0,0,.21-.22A.13.13,0,0,0,66,12.94Z"/><path class="cls-5" d="M67,12.95l.07.07a.16.16,0,0,0,.25-.09l0-.11C67.46,12.42,66.71,12.6,67,12.95Z"/><path class="cls-5" d="M63.85,17.44a.23.23,0,0,0-.31-.06l-.07.06c-.26.22.09.6.3.34l.07-.08A.23.23,0,0,0,63.85,17.44Z"/><path class="cls-5" d="M58.34,16h-.12c-.18,0-.1.31.07.21l.1-.06A.08.08,0,0,0,58.34,16Z"/><path class="cls-5" d="M67.81,9.37c-.35-.13-.64.12-.85.39s.17.56.37.32.41-.3.54-.53A.14.14,0,0,0,67.81,9.37Z"/><path class="cls-5" d="M70.18,9.49a1.47,1.47,0,0,0,.08.4.07.07,0,0,0,.12,0,1.5,1.5,0,0,0,.11-.39C70.53,9.29,70.16,9.27,70.18,9.49Z"/><path class="cls-5" d="M71.15,11,71,10.92c-.09-.09-.24.07-.14.15a.32.32,0,0,0,.28.09A.08.08,0,0,0,71.15,11Z"/><path class="cls-5" d="M73.45,9.44c-.14-.19-.33-.17-.54-.09a.15.15,0,0,0,.06.29.91.91,0,0,0,.42,0A.13.13,0,0,0,73.45,9.44Z"/><path class="cls-5" d="M75.61,9.4a1.1,1.1,0,0,0-.56.12c-.17.07-.13.36.07.34a1.12,1.12,0,0,0,.55-.17C75.78,9.62,75.76,9.41,75.61,9.4Z"/><path class="cls-5" d="M77.63,9.63a.84.84,0,0,0-.52-.19.18.18,0,0,0-.07.36.85.85,0,0,0,.56,0A.11.11,0,0,0,77.63,9.63Z"/><path class="cls-5" d="M79.54,10.45l-.13-.12c-.18-.16-.47.08-.32.28l.11.15C79.39,11,79.79,10.68,79.54,10.45Z"/><path class="cls-5" d="M73.52,11.2a.52.52,0,0,0,0-.06.26.26,0,0,0-.46-.15l0,0C72.71,11.49,73.54,11.7,73.52,11.2Z"/><path class="cls-5" d="M71.75,11.51a.8.8,0,0,0,.05.33.11.11,0,0,0,.16.05,1,1,0,0,0,.27-.22C72.57,11.31,71.73,11,71.75,11.51Z"/><path class="cls-5" d="M70.7,12.77a0,0,0,1,0,0,.06A0,0,0,1,0,70.7,12.77Z"/><path class="cls-5" d="M68.5,11.93h-.08a.21.21,0,0,0-.08.4l.07,0C68.76,12.52,68.89,11.91,68.5,11.93Z"/><path class="cls-5" d="M68.06,11.23l0-.1c-.15-.34-.52.17-.19.22h.11C68,11.38,68.1,11.31,68.06,11.23Z"/><path class="cls-5" d="M70.23,12.2a.38.38,0,0,0,0,.29.11.11,0,0,0,.18,0,.38.38,0,0,0,.14-.25C70.65,12.05,70.26,12,70.23,12.2Z"/><path class="cls-5" d="M70.56,12.84c0-.18-.3-.22-.33,0a.42.42,0,0,1-.06.11.16.16,0,0,0,.16.23h.05a.2.2,0,0,0,.17-.15A.29.29,0,0,0,70.56,12.84Z"/><path class="cls-5" d="M65.74,10.77l-.19,0a.3.3,0,0,0-.24.39h0l0,0v0l0,0a.22.22,0,0,0,.24.1l.19,0C66.14,11.28,66.11,10.72,65.74,10.77Z"/><path class="cls-5" d="M64.05,12.19c-.31.15-.87.53-.66.94a.09.09,0,0,0,.11,0,.5.5,0,0,0,.25-.22,1.34,1.34,0,0,1,.46-.43C64.4,12.42,64.24,12.1,64.05,12.19Z"/><path class="cls-5" d="M61.55,13.16a.42.42,0,0,0-.17-.15.13.13,0,0,0-.17.06l0,0a.09.09,0,0,0,.06.13s.15,0,.17,0A.08.08,0,0,0,61.55,13.16Z"/><path class="cls-5" d="M64.74,13.81l-.19-.14a.24.24,0,1,0-.26.39l.2.12a.23.23,0,0,0,.27-.05l0-.05A.23.23,0,0,0,64.74,13.81Z"/><path class="cls-5" d="M67.63,14.64H67.5c-.21,0-.11.38.08.25l.1-.06A.1.1,0,0,0,67.63,14.64Z"/><path class="cls-5" d="M68.88,14.21l0,0a.13.13,0,0,0-.23,0l0,0C68.4,14.42,69,14.54,68.88,14.21Z"/><path class="cls-5" d="M62.27,12.52a.64.64,0,0,0-.57.52.2.2,0,0,0,.35.17.4.4,0,0,1,.26-.14C62.68,13,62.62,12.46,62.27,12.52Z"/><path class="cls-5" d="M60.59,14.11a0,0,0,0,0,0,.07S60.62,14.12,60.59,14.11Z"/><path class="cls-5" d="M59,14a.63.63,0,0,0-.46.36.11.11,0,0,0,.18.12,1,1,0,0,1,.35-.27A.11.11,0,0,0,59,14Z"/><path class="cls-5" d="M33.26,4.32a.34.34,0,0,1,0-.05.11.11,0,0,0-.11-.09l-.18,0a.15.15,0,0,0,0,.29.26.26,0,0,0,.25,0A.15.15,0,0,0,33.26,4.32Z"/><path class="cls-5" d="M35.41,2.45a.37.37,0,0,1,0-.05s0,0,0,0l.05-.08s0-.07,0,0l-.08.09s-.06,0-.08,0l0,0C35.1,2.57,35.44,2.64,35.41,2.45Z"/><path class="cls-5" d="M37.52,1.12a1.43,1.43,0,0,0-.62.12c-.1,0,0,.18,0,.15a2.38,2.38,0,0,1,.56-.1C37.6,1.28,37.62,1.13,37.52,1.12Z"/><path class="cls-5" d="M39.5,1A1.83,1.83,0,0,0,39,1a.14.14,0,0,0,0,.27,2,2,0,0,0,.48,0A.14.14,0,0,0,39.5,1Z"/><path class="cls-5" d="M40.31,2.37l.07.07a.14.14,0,0,0,.24-.08l0-.11C40.72,1.87,40,2,40.31,2.37Z"/><path class="cls-5" d="M41.56.78a.07.07,0,0,0-.12,0A.76.76,0,0,0,41.3,1a.16.16,0,1,0,.31.06A.74.74,0,0,0,41.56.78Z"/><path class="cls-5" d="M42.54-.35A1.91,1.91,0,0,0,42-.18c-.12,0-.06.23.06.18a2,2,0,0,0,.5-.22A.08.08,0,0,0,42.54-.35Z"/><path class="cls-5" d="M45.19.51A1.4,1.4,0,0,0,44.77,0c-.16-.16-.4.11-.23.27a1.33,1.33,0,0,0,.52.4C45.14.7,45.21.59,45.19.51Z"/><path class="cls-5" d="M46.42,1.23c-.06-.09-.16-.09-.22-.18s-.33,0-.26.13a.43.43,0,0,0,.23.26.18.18,0,0,0,.21,0l0,0A.11.11,0,0,0,46.42,1.23Z"/><path class="cls-5" d="M47.87,1.23a.57.57,0,0,0-.19-.34c-.18-.18-.41.11-.25.29s.07.19.19.27a.13.13,0,0,0,.13,0l0,0A.2.2,0,0,0,47.87,1.23Z"/><path class="cls-5" d="M42,3.05l0,.08c-.13.25.23.41.38.19l0-.07C42.52,3,42.12,2.8,42,3.05Z"/><path class="cls-5" d="M42.43,1.89a.19.19,0,0,0-.11-.17l-.1,0a.19.19,0,0,0-.16.11l0,.1a.22.22,0,1,0,.41.08Z"/><path class="cls-5" d="M44.17,1.41a.35.35,0,0,0-.33-.18c-.17,0-.19.28,0,.31s.1.09.14.12a.1.1,0,0,0,.13,0l0,0A.17.17,0,0,0,44.17,1.41Z"/><path class="cls-5" d="M44.61,2.28A.9.9,0,0,0,44.5,2c-.14-.25-.54,0-.36.25a.81.81,0,0,0,.2.2A.17.17,0,0,0,44.61,2.28Z"/><path class="cls-5" d="M38.71,3.35a.38.38,0,0,0-.15.75A.38.38,0,0,0,38.71,3.35Z"/><path class="cls-5" d="M37.38,4.66a.68.68,0,0,0,0,.4.14.14,0,0,0,.21.07.71.71,0,0,0,.26-.32C38,4.51,37.46,4.29,37.38,4.66Z"/><path class="cls-5" d="M35.23,5.21c-.15.11-.43.14-.3.38a.19.19,0,0,0,.17.08,1,1,0,0,0,.36-.12C35.68,5.42,35.44,5,35.23,5.21Z"/><path class="cls-5" d="M33.54,5a.6.6,0,0,0-.25.4.2.2,0,0,0,.1.2l0,0a.12.12,0,0,0,.12,0c.12-.08.1-.21.21-.3S33.74,4.84,33.54,5Z"/><path class="cls-5" d="M32.94,5.84a.36.36,0,0,0-.12.22.1.1,0,0,0,.12.11A.34.34,0,0,0,33.16,6C33.3,5.91,33.07,5.71,32.94,5.84Z"/><path class="cls-5" d="M41.29,4.16c0-.36-.63-.29-.51.11l0,.08c.09.29.48.16.48-.1C41.28,4.22,41.28,4.19,41.29,4.16Z"/><path class="cls-5" d="M43.31,3.77l-.05,0a.17.17,0,1,0,0,.21l0-.07A.08.08,0,0,0,43.31,3.77Z"/><path class="cls-5" d="M45.62,3l0,0c-.26-.18-.36.33-.05.26h0A.13.13,0,0,0,45.62,3Z"/><path class="cls-5" d="M48.05,2.14l-.08,0c-.3-.17-.53.31-.24.48l.08,0C48.12,2.78,48.35,2.31,48.05,2.14Z"/><path class="cls-5" d="M49.45,1.69a.24.24,0,0,0,0-.28.34.34,0,0,0-.23-.21.16.16,0,0,0-.22.11.42.42,0,0,0,0,.21l0,.06a.22.22,0,0,0,0,.26.16.16,0,0,0,.11.21.24.24,0,0,0,.25,0,.12.12,0,0,0,0-.14l0,0h0Z"/><path class="cls-5" d="M31.85,5.79a.2.2,0,0,0-.07.38A.2.2,0,0,0,31.85,5.79Z"/><path class="cls-5" d="M30.72,6.58a.8.8,0,0,0-.35.47.07.07,0,0,0,.12.05,1.94,1.94,0,0,1,.37-.32C31,6.7,30.84,6.48,30.72,6.58Z"/><path class="cls-5" d="M28.36,7.62a.37.37,0,0,0-.32.05s0,.09,0,.09a.75.75,0,0,1,.26,0C28.44,7.85,28.48,7.65,28.36,7.62Z"/><path class="cls-5" d="M27.4,8.18,27,8.34s0,0,0,0l.37-.15A0,0,0,1,0,27.4,8.18Z"/><path class="cls-5" d="M53.37,18.67a0,0,0,0,0,0,0,5.13,5.13,0,0,1,1.78,1.5s0,0,0,0A3.74,3.74,0,0,0,53.37,18.67Z"/><path class="cls-5" d="M63.22,32.88A9.7,9.7,0,0,1,60.3,30s0,0,0,0a8,8,0,0,0,2.92,2.91S63.24,32.89,63.22,32.88Z"/><path class="cls-5" d="M72.71,35.19c-3.14,0-5.42-1.64-7.34-4-1.27-1.55-2.32-3.41-4-4.62,0,0-.07,0,0,0,1.69,2,3.29,4.26,5.16,6.14,1.65,1.67,3.76,3,6.19,2.5A0,0,0,0,0,72.71,35.19Z"/><path class="cls-5" d="M71.17,33.71c-1.82-.16-3.45-1.83-4.65-3.1,0,0,0,0,0,0,1.15,1.42,2.58,3.42,4.66,3.14C71.2,33.77,71.21,33.72,71.17,33.71Z"/><path class="cls-5" d="M68.76,17.54a0,0,0,0,0,0,.06A0,0,0,0,0,68.76,17.54Z"/><path class="cls-5" d="M79.89,12.71c-3.79.37-7.52,2.35-10.61,4.45a0,0,0,0,0,.05.08c3.37-2,6.93-3.09,10.58-4.43A0,0,0,0,0,79.89,12.71Z"/><path class="cls-5" d="M80.33,12.21a8.33,8.33,0,0,0-4.77.64s0,0,0,0a17.57,17.57,0,0,1,4.75-.55A.06.06,0,0,0,80.33,12.21Z"/><path class="cls-5" d="M3.79,17.39C1.08,17.51-1.54,15-3.1,13c-1.34-1.71-2.38-3.67-3.54-5.5a0,0,0,0,0,0,0,34.5,34.5,0,0,0,4.58,6.88c1.49,1.58,3.54,3.57,5.88,3.25A.11.11,0,0,0,3.79,17.39Z"/><path class="cls-5" d="M.64,15.28A19.71,19.71,0,0,1-4,10.65s-.08,0-.06,0A11.89,11.89,0,0,0,.59,15.36S.69,15.31.64,15.28Z"/><path class="cls-5" d="M15.3,23.77c-3.21-.58-4.81-2.59-6.51-5.2a19.16,19.16,0,0,0-4.55-5s0,0,0,0c2.52,2,3.8,4.79,5.75,7.27,1.26,1.61,3.13,3.26,5.32,3.08A.08.08,0,0,0,15.3,23.77Z"/><path class="cls-5" d="M13.52,21.95a24.44,24.44,0,0,1-2.92-2.68,0,0,0,0,0,0,0A7.11,7.11,0,0,0,13.47,22,.05.05,0,0,0,13.52,21.95Z"/><path class="cls-5" d="M17.41,2.76c-.28.31.28.7.48.32A.29.29,0,0,0,17.41,2.76Z"/><path class="cls-5" d="M19.89,2.87a.24.24,0,1,0-.47.1c0,.16.05.28.22.35a.16.16,0,0,0,.18,0C19.95,3.16,19.92,3,19.89,2.87Z"/><path class="cls-5" d="M20.41,3.6a.11.11,0,0,0,0,.22A.11.11,0,0,0,20.41,3.6Z"/><path class="cls-5" d="M20.78.51a.24.24,0,0,0-.09.48A.24.24,0,0,0,20.78.51Z"/><path class="cls-5" d="M22.84.18a1.61,1.61,0,0,0-.4-.18c-.3-.1-.41.45-.09.47a1.65,1.65,0,0,0,.43,0A.15.15,0,0,0,22.84.18Z"/><path class="cls-5" d="M24,.51,23.82.39c-.2-.16-.47.15-.26.3A.42.42,0,0,0,24,.78.15.15,0,0,0,24,.51Z"/><path class="cls-5" d="M26.06.69A.74.74,0,0,0,25.6.49a.2.2,0,0,0-.08.39.77.77,0,0,0,.5,0A.1.1,0,0,0,26.06.69Z"/><path class="cls-5" d="M25.87,1.7l-.17,0c-.26,0-.23.44,0,.41l.17,0C26.16,2.08,26.13,1.66,25.87,1.7Z"/><path class="cls-5" d="M22.53,2.35a.46.46,0,0,0-.11.42.1.1,0,0,0,.08.09.44.44,0,0,0,.4-.09C23.23,2.51,22.75,2,22.53,2.35Z"/><path class="cls-5" d="M21.89,3.76a.18.18,0,0,0-.18.27l0,.06a.1.1,0,0,0,.14,0l.06,0A.18.18,0,0,0,21.89,3.76Z"/><path class="cls-5" d="M20.13-.29c0-.47-.81-.32-.63.13a.8.8,0,0,0,.18.28.26.26,0,0,0,.4-.08A.68.68,0,0,0,20.13-.29Z"/><path class="cls-5" d="M16.22,3.1a.75.75,0,0,0-.36.53.26.26,0,0,0,.51.1.25.25,0,0,1,.15-.17C16.84,3.38,16.53,2.91,16.22,3.1Z"/><path class="cls-5" d="M33.72,10.75a36,36,0,0,0-3.63,2.32A12.65,12.65,0,0,0,27,15.4a0,0,0,0,0,0,.07,13.47,13.47,0,0,0,3.45-2.2,32.87,32.87,0,0,0,3.29-2.44S33.76,10.73,33.72,10.75Z"/><path class="cls-5" d="M29.2,12c-.71.47-1.36,1-2.08,1.49a.12.12,0,0,0,.13.19,13.47,13.47,0,0,0,2-1.61S29.25,12,29.2,12Z"/><path class="cls-5" d="M26.33,2.26c-4.51,4.06-9.43,8.12-15.89,7.07a0,0,0,0,0,0,0c6.28,2,11.84-3.05,15.95-7.08C26.4,2.27,26.35,2.24,26.33,2.26Z"/><path class="cls-5" d="M31.71-.45c-2.43.54-4.12,3.12-5.86,4.69,0,0,0,0,0,0,1-.8,1.84-1.68,2.77-2.52a15.58,15.58,0,0,1,3.15-2C31.87-.36,31.79-.47,31.71-.45Z"/><path class="cls-5" d="M8.91-.36A22.11,22.11,0,0,0,1.55,2C-.9,3.19-3.24,5.4-5.95,5.82c0,0,0,0,0,0C-3.52,5.54-1.34,3.62.83,2.58,3.47,1.32,6.24.8,8.95-.19A.09.09,0,0,0,8.91-.36Z"/><path class="cls-5" d="M3.78,6.47s-.08,0,0,.06c4.16,3.3,6.12,8,8.24,12.69a0,0,0,1,0,0,0C10,14.62,8.38,9.12,3.78,6.47Z"/><path class="cls-5" d="M26.78,25c-1.62-.14-3.14.08-4.7-.59A11.71,11.71,0,0,1,17.77,21c-1.88-2.28-3-5.14-5-7.33-.05-.06-.12,0-.09.08,2.51,4.61,7.41,13.67,14.09,11.44C26.87,25.18,26.87,25,26.78,25Z"/><path class="cls-5" d="M25.06,23.24c-3.67-1-6-3.24-8.1-6.36,0-.05-.11,0-.08.05,1.7,3,4.45,6.2,8.16,6.42A.06.06,0,0,0,25.06,23.24Z"/><path class="cls-5" d="M19.67,13.17c-.21-.14-.38.19-.23.34a.35.35,0,0,0,.34.14.14.14,0,0,0,.13-.15C19.88,13.31,19.82,13.27,19.67,13.17Z"/><path class="cls-5" d="M21.31,15.62a.35.35,0,0,1-.21-.3c0-.23-.41-.28-.43,0a1,1,0,0,0,.31.82C21.28,16.41,21.71,15.83,21.31,15.62Z"/><path class="cls-5" d="M22.1,14.2a.25.25,0,0,0-.1.5A.25.25,0,0,0,22.1,14.2Z"/><path class="cls-5" d="M21.57,12.65l0,.06a.23.23,0,0,0,.24.36l.07,0C22.24,12.95,21.82,12.31,21.57,12.65Z"/><path class="cls-5" d="M19.54,12.75l0,0a.25.25,0,0,0-.09-.07.22.22,0,0,0-.23-.35.28.28,0,0,0-.21.13.15.15,0,0,0,0,.21.33.33,0,0,0,.12.07.21.21,0,0,0,0,.3l0,.05C19.31,13.32,19.75,13,19.54,12.75Z"/><path class="cls-5" d="M17.32,15.66a.67.67,0,0,0,0,.08.35.35,0,0,0,.68.13l0-.08A.35.35,0,0,0,17.32,15.66Z"/><path class="cls-5" d="M20.09,12.16a.33.33,0,0,0-.13.65A.33.33,0,0,0,20.09,12.16Z"/><path class="cls-5" d="M16.79,13.75l0,.08c-.13.28.25.44.41.2l.05-.07C17.38,13.71,16.93,13.46,16.79,13.75Z"/><path class="cls-5" d="M18.79,15.21a.27.27,0,1,0-.17.51c.18,0,.26.21.45.27a.16.16,0,0,0,.17-.09C19.37,15.59,19,15.34,18.79,15.21Z"/><path class="cls-5" d="M20.57,16a.22.22,0,0,0-.37.25c.13.19.23.39.47.45a.13.13,0,0,0,.15-.1A.86.86,0,0,0,20.57,16Z"/><path class="cls-5" d="M22.67,18.1l-.07,0c-.26-.18-.52.31-.22.45l.08,0C22.74,18.68,22.92,18.27,22.67,18.1Z"/><path class="cls-5" d="M23.11,16.23c-.34-.1-.44.51,0,.52.11,0,.18.1.29-.06S23.3,16.29,23.11,16.23Z"/><path class="cls-5" d="M23.5,18.47c-.07-.3-.55-.15-.46.16s.07.31.26.4a.14.14,0,0,0,.16,0C23.6,18.8,23.55,18.69,23.5,18.47Z"/><path class="cls-5" d="M24.51,20.29c-.08-.22-.4,0-.23.15a.33.33,0,0,0,.15.09.08.08,0,0,0,.12-.08A.34.34,0,0,0,24.51,20.29Z"/><path class="cls-5" d="M25.23,21.36c-.12-.22-.44,0-.32.22s.11.25.28.31a.12.12,0,0,0,.17-.08C25.39,21.61,25.32,21.53,25.23,21.36Z"/><path class="cls-5" d="M21.06,19.44c-.41.28.12.89.45.51A.34.34,0,0,0,21.06,19.44Z"/><path class="cls-5" d="M36.14,17.19c-.09-.34-.41-.43-.73-.45s-.33.5,0,.54c.14,0,.21.13.32.2a.3.3,0,0,0,.34,0h0A.28.28,0,0,0,36.14,17.19Z"/><path class="cls-5" d="M36.75,14.45c-.45-.19-.66.54-.2.61.21,0,.31.2.51.23a.16.16,0,0,0,.18-.09C37.38,14.89,37,14.56,36.75,14.45Z"/><path class="cls-5" d="M38.7,15.82c0-.28-.49-.25-.44,0a1.12,1.12,0,0,0,.23.67.15.15,0,0,0,.22,0A1,1,0,0,0,38.7,15.82Z"/><path class="cls-5" d="M39.16,18.44l-.07-.14a.23.23,0,0,0-.44.16h0C38.54,18.93,39.33,18.84,39.16,18.44Z"/><path class="cls-5" d="M34.58,14.51c-.24,0-.52.21-.4.46l0,.08a.29.29,0,0,0,.48.09l.07-.06A.35.35,0,0,0,34.58,14.51Z"/><path class="cls-5" d="M33.29,17.19c0,.21-.09.57.21.63s.37-.3.43-.51C34,16.91,33.34,16.77,33.29,17.19Z"/><path class="cls-5" d="M34.37,19.07c-.13-.25-.53,0-.37.25a.68.68,0,0,0,.34.29.23.23,0,0,0,.29-.1C34.76,19.32,34.44,19.21,34.37,19.07Z"/><path class="cls-5" d="M37,19.41a1.05,1.05,0,0,1-.23-.26c-.17-.33-.67,0-.48.33a.65.65,0,0,0,.5.37A.26.26,0,0,0,37,19.41Z"/><path class="cls-5" d="M37.73,18.07a.3.3,0,1,0-.55.19,1.19,1.19,0,0,0,.38.52c.08.05.17,0,.19-.09A1.17,1.17,0,0,0,37.73,18.07Z"/><path class="cls-5" d="M39,20.88c-.13-.23-.4-.24-.58-.41s-.46.12-.28.31.41.49.76.4A.2.2,0,0,0,39,20.88Z"/><path class="cls-5" d="M40.19,20.46A.1.1,0,0,0,40,20.4a.94.94,0,0,0-.18.31.16.16,0,1,0,.29.1A.94.94,0,0,0,40.19,20.46Z"/><path class="cls-5" d="M40.28,18.6a.22.22,0,0,0-.08.43A.22.22,0,0,0,40.28,18.6Z"/><path class="cls-5" d="M40.11,16.9c-.06-.23-.41-.11-.35.12a1.65,1.65,0,0,0,.17.5c.09.14.27,0,.27-.09A1.72,1.72,0,0,0,40.11,16.9Z"/><path class="cls-5" d="M40.08,21.55c-.41-.21-.67.49-.2.6.19,0,.27.26.45.35a.15.15,0,0,0,.17,0C40.81,22.13,40.37,21.7,40.08,21.55Z"/><path class="cls-5" d="M38.31,23c0-.07,0-.08,0,0a.29.29,0,1,0-.31.15c.12,0,.16.07.29,0A.12.12,0,0,0,38.31,23Z"/><path class="cls-5" d="M40.62,24.16l0,0c-.1-.06-.14.15,0,.13h.05A0,0,0,0,0,40.62,24.16Z"/><path class="cls-5" d="M42.34,23.85c0-.42-.71-.26-.54.11a1.48,1.48,0,0,0,.32.51.1.1,0,0,0,.15,0A1.39,1.39,0,0,0,42.34,23.85Z"/><path class="cls-5" d="M42.71,25.85a.63.63,0,0,0-.19-.25c-.2-.18-.55.1-.37.32a.66.66,0,0,0,.24.2C42.56,26.21,42.79,26,42.71,25.85Z"/><path class="cls-5" d="M43.55,26.76a.28.28,0,1,0-.43.37C43.49,27.5,43.89,27.16,43.55,26.76Z"/><path class="cls-5" d="M80.17,25.77c-.18-.27-.42-.15-.7-.2a.18.18,0,0,0-.07.35c.28.06.45.26.72.08A.18.18,0,0,0,80.17,25.77Z"/><path class="cls-5" d="M81.06,25.31c-.07,0-.09.08-.06.13l.15.28a.1.1,0,0,0,.18,0A.27.27,0,0,0,81.06,25.31Z"/><path class="cls-5" d="M82.48,27.74c-.14-.3-.44-.45-.69-.64a.19.19,0,0,0-.26.29c.19.21.38.51.65.61S82.56,27.93,82.48,27.74Z"/><path class="cls-5" d="M83.66,28.57c-.08-.07-.19-.09-.28-.16a.2.2,0,0,0-.26.29.38.38,0,0,0,.53.1A.15.15,0,0,0,83.66,28.57Z"/><path class="cls-5" d="M83.27,26.17l-.1,0c-.35-.11-.47.52-.11.55h.11A.27.27,0,0,0,83.27,26.17Z"/><path class="cls-5" d="M84.65,26.59c-.21,0-.33.29-.12.36s.12.18.17.31a.18.18,0,0,0,.31.06C85.29,27,85,26.65,84.65,26.59Z"/><path class="cls-5" d="M79.92,29.22c-.05-.24-.24-.33-.45-.43a.22.22,0,0,0-.24.36.64.64,0,0,0,.55.29A.16.16,0,0,0,79.92,29.22Z"/><path class="cls-5" d="M82.67,30.39a.19.19,0,0,0-.17.34c.14.08.23.23.4.24s.14,0,.15-.1C83.09,30.62,82.87,30.49,82.67,30.39Z"/><path class="cls-5" d="M85,30.57c-.22-.05-.29.29-.07.34s.2.17.32.25a.17.17,0,0,0,.27-.14C85.5,30.75,85.23,30.63,85,30.57Z"/><path class="cls-5" d="M86,28.9a.25.25,0,0,0-.1.5A.25.25,0,0,0,86,28.9Z"/><path class="cls-5" d="M87.13,29.48c-.08-.25-.46-.12-.38.13a1.8,1.8,0,0,0,.24.55.14.14,0,0,0,.26-.09A1.87,1.87,0,0,0,87.13,29.48Z"/><path class="cls-5" d="M91.61,22.14c-.15,0-.29,0-.43-.07a.25.25,0,0,0-.21.43,1,1,0,0,0,.52.27A.32.32,0,0,0,91.61,22.14Z"/><path class="cls-5" d="M93.86,21.16a.91.91,0,0,0-.69-.13.21.21,0,0,0,0,.42c.19,0,.36.05.55,0A.2.2,0,0,0,93.86,21.16Z"/><path class="cls-5" d="M95.64,21.86a1.11,1.11,0,0,0-.29-.5c-.19-.21-.52.15-.29.33s.2.57.5.41A.22.22,0,0,0,95.64,21.86Z"/><path class="cls-5" d="M95.94,23.23a.22.22,0,1,0-.43.09,1.57,1.57,0,0,0,.16.43.17.17,0,0,0,.3-.06A1.44,1.44,0,0,0,95.94,23.23Z"/><path class="cls-5" d="M93.71,23.45l-.1-.06a.14.14,0,0,0,0,0,1.13,1.13,0,0,0,.26-.1c.15-.08.07-.29-.07-.32a1.42,1.42,0,0,0-.55,0,.24.24,0,0,0-.21.32.65.65,0,0,0,.09.18.24.24,0,0,0,0,.14.43.43,0,0,0,.56.4C93.94,23.9,93.89,23.56,93.71,23.45Z"/><path class="cls-5" d="M96.88,23.4c-.41-.2-.65.51-.2.59A.31.31,0,0,0,96.88,23.4Z"/><path class="cls-5" d="M97.48,21.31c-.19-.35-.75,0-.53.36.12.18.36.62.64.44S97.58,21.5,97.48,21.31Z"/><path class="cls-5" d="M98.3,23.23a.26.26,0,0,0-.43.29c.13.2.16.43.34.59a.23.23,0,0,0,.37-.13A.94.94,0,0,0,98.3,23.23Z"/><path class="cls-5" d="M97.76,25.71c-.14.28-.4.43-.58.68a.12.12,0,0,0,.07.19c.45.1.79-.28,1-.64S97.91,25.41,97.76,25.71Z"/><path class="cls-5" d="M96.31,26.18a.9.9,0,0,0-.34,0,.22.22,0,0,0-.07.37.91.91,0,0,0,.31.14C96.55,26.8,96.66,26.22,96.31,26.18Z"/><path class="cls-5" d="M93.29,24.74l-.07,0a.16.16,0,0,0,0,.22l0,.06a.23.23,0,1,0,.06-.32Z"/><path class="cls-5" d="M90.61,24.38c-.24.15-.57,0-.76.25a.12.12,0,0,0,0,.12c.17.41.78.17,1.05,0S90.87,24.23,90.61,24.38Z"/><path class="cls-5" d="M88.16,23.47c-.26,0-.47-.06-.69.09a.16.16,0,0,0,0,.25c.19.22.47.12.74.09S88.43,23.42,88.16,23.47Z"/><path class="cls-5" d="M85.88,23.28c-.21.12-.46.09-.65.23a.1.1,0,0,0,0,.16c.24.19.57,0,.82-.07A.18.18,0,1,0,85.88,23.28Z"/><path class="cls-5" d="M89.75,21.46c-.15-.19-.37-.17-.6-.15s-.19.36,0,.34a2.36,2.36,0,0,0,.52,0A.11.11,0,0,0,89.75,21.46Z"/><path class="cls-5" d="M92.1,20.7a.73.73,0,0,0-.26,0c-.29,0-.23.51.09.41a.63.63,0,0,0,.19-.09C92.2,20.91,92.21,20.74,92.1,20.7Z"/><path class="cls-5" d="M96.21,29.56c-3.7.53-5.93-1.68-8.15-4.3,0,0-.08,0-.05,0,1.74,2.57,4.81,5.69,8.23,4.4C96.31,29.67,96.29,29.55,96.21,29.56Z"/><path class="cls-5" d="M95.89,28.54A6.8,6.8,0,0,1,91.25,27s-.05,0,0,0a5,5,0,0,0,4.69,1.62S95.93,28.54,95.89,28.54Z"/><path class="cls-5" d="M89,33.09c-1.15,1-2.13,2.17-3.73,2.41a9,9,0,0,1-5.47-1.19c-2.74-1.64-4-4.76-5.92-7.18,0,0,0,0,0,0,1.5,3,3.58,6.65,6.82,8s6.43,1,8.43-1.92C89.19,33.15,89.1,33,89,33.09Z"/><path class="cls-5" d="M84.92,33.61A7.36,7.36,0,0,1,78,30.33s-.07,0-.06,0a6.14,6.14,0,0,0,7,3.4C85,33.73,85,33.6,84.92,33.61Z"/><path class="cls-5" d="M73.08,20.52c-.08,0-.23.11-.31.05s-.46.12-.27.3a.64.64,0,0,0,.83.14A.28.28,0,0,0,73.08,20.52Z"/><path class="cls-5" d="M75.94,19.45a1,1,0,0,0-.54-.1c-.31,0-.26.52,0,.47.11,0,.12,0,.21.07C75.93,20.16,76.31,19.63,75.94,19.45Z"/><path class="cls-5" d="M77.25,19.32a.75.75,0,0,1-.15,0c-.13-.08-.24.1-.18.2a.29.29,0,0,0,.14.13.17.17,0,0,0,.2,0l0,0C77.33,19.46,77.34,19.35,77.25,19.32Z"/><path class="cls-5" d="M77.07,17.42,77,17.37c-.17-.21-.57-.06-.45.22a1.15,1.15,0,0,0,.15.27C77,18.25,77.49,17.62,77.07,17.42Z"/><path class="cls-5" d="M79.16,17.32a1.05,1.05,0,0,0-.55-.11c-.37,0-.27.61.11.51a.1.1,0,0,1,.14.06.28.28,0,0,0,.34,0l.05,0A.28.28,0,0,0,79.16,17.32Z"/><path class="cls-5" d="M81,18.1a.68.68,0,0,0-.18-.25c-.19-.18-.45.17-.21.31a.51.51,0,0,0,.26.1C81,18.27,81.06,18.19,81,18.1Z"/><path class="cls-5" d="M81.33,16.25a.18.18,0,0,0-.07.35A.18.18,0,0,0,81.33,16.25Z"/><path class="cls-5" d="M82,15.55c-.16-.1-.34.16-.18.27s.21.18.39.13a.11.11,0,0,0,.07-.11C82.21,15.67,82.12,15.65,82,15.55Z"/><path class="cls-5" d="M83.54,16.17a1,1,0,0,0-.25-.26.19.19,0,0,0-.26.29,1,1,0,0,0,.29.23A.18.18,0,0,0,83.54,16.17Z"/><path class="cls-5" d="M85.59,16.81c-.1-.14-.23-.17-.36-.28s-.38.06-.26.23.27.33.5.3A.16.16,0,0,0,85.59,16.81Z"/><path class="cls-5" d="M86.52,17.61a.69.69,0,0,0-.31-.37c-.29-.21-.65.2-.37.42a.74.74,0,0,0,.44.22A.22.22,0,0,0,86.52,17.61Z"/><path class="cls-5" d="M66.81,24.14a.32.32,0,0,0-.38.35,1.3,1.3,0,0,0-.24.37c-.07.17.12.37.29.25a1.38,1.38,0,0,0,.3-.33A.33.33,0,0,0,66.81,24.14Z"/><path class="cls-5" d="M64.58,24.67l-.06,0c-.26-.07-.32.32-.08.4l.06,0C64.75,25.15,64.84,24.74,64.58,24.67Z"/><path class="cls-5" d="M65.84,23.4l-.07,0a.16.16,0,0,0-.22.16.21.21,0,0,0-.09.16c0,.22-.1.41-.11.63s.14.16.21.11a.74.74,0,0,0,.3-.63C66,23.78,66.19,23.4,65.84,23.4Z"/><path class="cls-5" d="M65.3,26,65.2,26a.16.16,0,0,0-.31.11,2,2,0,0,0,.08.25C65.16,26.78,65.68,26.21,65.3,26Z"/><path class="cls-5" d="M67.15,26.17a.13.13,0,0,0-.17,0c-.1.09-.16.2-.25.29s.08.46.29.33S67.37,26.39,67.15,26.17Z"/><path class="cls-5" d="M67.85,25a1,1,0,0,0-.09-.2c-.05-.1-.2,0-.17.08a1,1,0,0,0,.09.2C67.73,25.2,67.88,25.12,67.85,25Z"/><path class="cls-5" d="M67.5,23.35a.7.7,0,0,0-.26.19.16.16,0,0,0,.17.25.54.54,0,0,0,.24-.13C67.79,23.54,67.69,23.25,67.5,23.35Z"/><path class="cls-5" d="M69.21,24.27c-.11-.23-.47-.12-.38.13a1.08,1.08,0,0,1,0,.46c0,.17.22.21.33.11A.62.62,0,0,0,69.21,24.27Z"/><path class="cls-5" d="M69.5,26.23c0-.2-.35-.23-.37,0a1.21,1.21,0,0,0,0,.43c0,.18.3.12.34,0A1.15,1.15,0,0,0,69.5,26.23Z"/><path class="cls-5" d="M69.54,27.88a.17.17,0,0,0-.32.07c0,.16,0,.27,0,.42a.14.14,0,0,0,.21.07C69.64,28.31,69.61,28.1,69.54,27.88Z"/><path class="cls-5" d="M69.26,28.81c0-.24-.43-.3-.46,0v0a.27.27,0,0,0,0,.32.25.25,0,0,0,.1.09.26.26,0,0,0,.37-.19A.7.7,0,0,0,69.26,28.81Z"/><path class="cls-5" d="M67.23,27.52c0,.11,0,.21,0,.31a.36.36,0,0,0,.67.13,3,3,0,0,0,.1-.3C68.09,27.2,67.29,27,67.23,27.52Z"/><path class="cls-5" d="M70,29a.21.21,0,0,0-.08.41A.21.21,0,0,0,70,29Z"/><path class="cls-5" d="M72,31c0-.13-.08-.25-.1-.38a.26.26,0,0,0-.52,0,.61.61,0,0,0,.29.56A.23.23,0,0,0,72,31Z"/><path class="cls-5" d="M73.25,32.88s-.06,0,0,0l0,.06a0,0,0,1,0,0,0Z"/><path class="cls-5" d="M73.8,33.54l0-.09c-.18-.48-.7.24-.25.29h.11A.16.16,0,0,0,73.8,33.54Z"/><path class="cls-5" d="M53.67,19.16a.35.35,0,0,0-.34,0,.22.22,0,0,0-.16.18.82.82,0,0,1,0,.21s0,0,0,0h0a.83.83,0,0,1-.14.32.18.18,0,0,0,0,.19.16.16,0,0,0,0,.31.16.16,0,0,0,.17-.24h0a.52.52,0,0,0,.32-.5h0A.26.26,0,0,0,53.67,19.16Z"/><path class="cls-5" d="M51.1,19.33l-.11.05c-.12.06-.11.27.05.26h.12C51.39,19.61,51.29,19.24,51.1,19.33Z"/><path class="cls-5" d="M51,21.41c0-.21-.3-.28-.33-.07s0,.75.29.92a.07.07,0,0,0,.1-.05C51.11,21.93,51,21.69,51,21.41Z"/><path class="cls-5" d="M53,21.7a1.93,1.93,0,0,0-.36,0c-.15,0-.13.22,0,.23a1.48,1.48,0,0,0,.33,0A.09.09,0,0,0,53,21.7Z"/><path class="cls-5" d="M54.2,22.06c-.09-.19-.41-.08-.32.11a1.11,1.11,0,0,0,.19.3.14.14,0,0,0,.23-.11A.82.82,0,0,0,54.2,22.06Z"/><path class="cls-5" d="M55.54,23.08c0-.26-.45-.15-.31.11l.06.1c.07.13.26,0,.25-.09S55.54,23.12,55.54,23.08Z"/><path class="cls-5" d="M54.53,21.93a1.07,1.07,0,0,0-.24,0c-.09,0-.1.11-.06.16a.58.58,0,0,0,.16.15C54.61,22.37,54.78,22,54.53,21.93Z"/><path class="cls-5" d="M53.52,21.4a.5.5,0,0,0-.2.17.1.1,0,0,0,.11.17.46.46,0,0,0,.23-.12A.13.13,0,0,0,53.52,21.4Z"/><path class="cls-5" d="M52.59,20.82c-.1.17-.29.19-.38.36a.13.13,0,0,0,.05.17c.28.11.5-.16.62-.39S52.7,20.64,52.59,20.82Z"/><path class="cls-5" d="M51.37,20.35a.5.5,0,0,0-.32-.08.16.16,0,0,0-.13.2.48.48,0,0,0,.18.28C51.36,21,51.69,20.53,51.37,20.35Z"/><path class="cls-5" d="M51.35,19.62a.5.5,0,0,0-.45.18.15.15,0,0,0,.16.24,1.45,1.45,0,0,1,.32-.08C51.6,19.95,51.56,19.63,51.35,19.62Z"/><path class="cls-5" d="M48.2,20.46c-.26.13-.63.23-.77.5a.13.13,0,0,0,.09.18c.32,0,.6-.24.87-.4S48.39,20.36,48.2,20.46Z"/><path class="cls-5" d="M49.79,18.56a2.19,2.19,0,0,0-.28.16c-.07,0,0,.16.07.11a1.9,1.9,0,0,0,.25-.2A0,0,0,0,0,49.79,18.56Z"/><path class="cls-5" d="M51,18.31a.31.31,0,0,0-.29,0c-.11,0,0,.22.06.18l.18,0A.08.08,0,0,0,51,18.31Z"/><path class="cls-5" d="M54.4,24.37v0a.25.25,0,1,0,0,.25l0,0A.21.21,0,0,0,54.4,24.37Z"/><path class="cls-5" d="M54.09,26a.66.66,0,0,0-.26-.26,1.36,1.36,0,0,0-.22-.13h0v0l0,0a.27.27,0,0,0-.36-.07l0,0a.27.27,0,0,0-.1.31c.1.3.61.48.9.45A.17.17,0,0,0,54.09,26Z"/><path class="cls-5" d="M57.24,25.93h-.09c-.31,0-.26.53,0,.47l.09,0C57.56,26.34,57.55,25.91,57.24,25.93Z"/><path class="cls-5" d="M58.48,26.88a.22.22,0,0,0-.42.15,1.24,1.24,0,0,0,.18.46.21.21,0,0,0,.37-.13A1.32,1.32,0,0,0,58.48,26.88Z"/><path class="cls-5" d="M56.79,23.77a.78.78,0,0,0-.15-.36.22.22,0,0,0-.36.24l.06.15a.24.24,0,0,0,.18.2.22.22,0,0,0,.12,0A.23.23,0,0,0,56.79,23.77Z"/><path class="cls-5" d="M51.34,22.65h0c.13-.21-.1-.52-.3-.34a.37.37,0,0,0,0,.61A.21.21,0,0,0,51.34,22.65Z"/><path class="cls-5" d="M56.06,26.74a.24.24,0,0,0-.09.47A.24.24,0,0,0,56.06,26.74Z"/><path class="cls-5" d="M57.12,29.09a.28.28,0,0,0-.11.55A.28.28,0,0,0,57.12,29.09Z"/><path class="cls-5" d="M64.55,19.51a11.53,11.53,0,0,0-3.92,3.34,0,0,0,0,0,0,0c.67-.24,1.08-.88,1.56-1.37a14.91,14.91,0,0,1,2.4-1.88C64.68,19.59,64.62,19.47,64.55,19.51Z"/><path class="cls-5" d="M87.56,17.76a16.34,16.34,0,0,1-4.48,2.49c-1.46.67-2.92,1.35-4.39,2a0,0,0,0,0,0,.06A53.07,53.07,0,0,0,84.58,20c1.11-.52,2.55-1,3.12-2.14C87.74,17.77,87.63,17.7,87.56,17.76Z"/><path class="cls-5" d="M79.34,19.48c-.11-.31-.44-.38-.74-.4a.14.14,0,0,0-.09.27,1.31,1.31,0,0,0,.73.28A.12.12,0,0,0,79.34,19.48Z"/><path class="cls-5" d="M82.74,18.31a.79.79,0,0,0-.32-.25c-.17-.09-.31.17-.14.27a.73.73,0,0,0,.35.14A.11.11,0,0,0,82.74,18.31Z"/><path class="cls-5" d="M86.1,15.42c-.15-.3-.5-.3-.79-.43a.13.13,0,0,0-.12.24c.25.14.48.43.79.37C86.05,15.59,86.14,15.51,86.1,15.42Z"/><path class="cls-5" d="M77,10.66a.78.78,0,0,0-.78-.11c-.15,0-.1.24,0,.28a4.51,4.51,0,0,1,.47.24C76.95,11.2,77.21,10.85,77,10.66Z"/><path class="cls-5" d="M71.69,9.51a1.39,1.39,0,0,0-.29-.18c-.12-.06-.23.08-.16.19s.17.37.4.32a.12.12,0,0,0,.1-.09V9.7A.21.21,0,0,0,71.69,9.51Z"/><path class="cls-5" d="M63.68,15.72a1.75,1.75,0,0,0-1.22-.21c-.12,0-.18.2-.05.26a1.79,1.79,0,0,0,1.24.11A.09.09,0,0,0,63.68,15.72Z"/><path class="cls-5" d="M58.65,15.27a1.35,1.35,0,0,0-.83-.12.12.12,0,0,0,0,.25,1.37,1.37,0,0,0,.84,0A.07.07,0,0,0,58.65,15.27Z"/><path class="cls-5" d="M59.8,8.39a2,2,0,0,0-1.39-.27.12.12,0,0,0,0,.22,2.7,2.7,0,0,0,.73.24,1.1,1.1,0,0,0,.66,0A.13.13,0,0,0,59.8,8.39Z"/><path class="cls-5" d="M62.31,6.77c-.08-.3-.42-.44-.68-.55a0,0,0,0,0,0,.05c.16.24.32.54.6.64C62.27,6.94,62.33,6.84,62.31,6.77Z"/><path class="cls-5" d="M55.16,6.12a.57.57,0,0,0-.56,0,.12.12,0,0,0,.08.22c.26-.07.36.18.54.26a.11.11,0,0,0,.16-.08A.37.37,0,0,0,55.16,6.12Z"/><path class="cls-5" d="M53.59,9.32a.1.1,0,0,0-.16,0,1.38,1.38,0,0,0-.22,1,.12.12,0,0,0,.23,0A1.38,1.38,0,0,0,53.59,9.32Z"/><path class="cls-5" d="M52.72,6.15c-.2-.19-.49,0-.68.09a1.12,1.12,0,0,0-.4.68c0,.06.08.11.12.06a1.29,1.29,0,0,1,.59-.44c.16-.07.3-.08.41-.23A.12.12,0,0,0,52.72,6.15Z"/><path class="cls-5" d="M48.26,8.07a1.19,1.19,0,0,0-.76.24.08.08,0,0,0,.05.14,1.19,1.19,0,0,0,.74-.22C48.34,8.19,48.34,8.08,48.26,8.07Z"/><path class="cls-5" d="M55.83,24.58a.24.24,0,0,0-.47,0,1.12,1.12,0,0,0,.06.79.17.17,0,0,0,.26,0A.82.82,0,0,0,55.83,24.58Z"/><path class="cls-5" d="M52.49,23a.18.18,0,0,0-.34-.07,2.07,2.07,0,0,0-.23,1.28.16.16,0,0,0,.31.06A2.12,2.12,0,0,0,52.49,23Z"/><path class="cls-5" d="M54.84,28.36a1,1,0,0,0-1.09-.52.09.09,0,0,0,0,.18,11,11,0,0,0,1,.49A.11.11,0,0,0,54.84,28.36Z"/><path class="cls-5" d="M59.24,30.68a1.16,1.16,0,0,0-.83-.4.1.1,0,0,0-.08.1,1.07,1.07,0,0,0,.64.71A.25.25,0,0,0,59.24,30.68Z"/><path class="cls-5" d="M59.11,28.26c-.14-.05-.31.09-.21.24a1.42,1.42,0,0,0,.37.47.12.12,0,0,0,.16-.05C59.6,28.63,59.37,28.35,59.11,28.26Z"/><path class="cls-5" d="M61.53,32c-.24-.4-.77-.47-1.18-.62a.14.14,0,0,0-.13.26c.36.24.74.62,1.21.57A.14.14,0,0,0,61.53,32Z"/><path class="cls-5" d="M1.33,6.8c-.1-.41-.41-.59-.72-.86s-.6.16-.35.4.49.58.91.64A.14.14,0,0,0,1.33,6.8Z"/><path class="cls-5" d="M2.41,8.35c-.23-.12-.49.24-.26.39a5.82,5.82,0,0,1,.72.6c.19.17.37.37.64.35a.18.18,0,0,0,.16-.14C3.72,9,2.84,8.57,2.41,8.35Z"/><path class="cls-5" d="M2.36,5.66c-.11-.22-.48-.1-.37.13s.18.78.54.9a.13.13,0,0,0,.17-.06C2.83,6.26,2.52,6,2.36,5.66Z"/><path class="cls-5" d="M2.19,4.49A.15.15,0,0,0,2,4.43c-.14.06-.2.19-.32.28s-.07.37.12.34S2.37,4.78,2.19,4.49Z"/><path class="cls-5" d="M6.09,2c-.34,0-.65.36-.83.63s.09.33.24.28c.31-.12.71-.36.78-.69A.19.19,0,0,0,6.09,2Z"/><path class="cls-5" d="M9.06.8,9,.73A.21.21,0,1,0,9,1L9,1A.14.14,0,0,0,9.06.8Z"/><path class="cls-5" d="M10.75-.32a.19.19,0,0,0-.07.38A.19.19,0,0,0,10.75-.32Z"/></g><path class="cls-2" d="M66.5,110.57a.14.14,0,0,1-.16-.15v-.63c0-.1,0-.15.16-.15h.94v-7H66.5c-.1,0-.16-.05-.16-.15v-.63c0-.1,0-.15.16-.15H73c.1,0,.16,0,.16.15v2A.15.15,0,0,1,73,104h-.66a.14.14,0,0,1-.15-.16v-1.2H68.5v3h3.11c.1,0,.16,0,.16.15v.63c0,.1-.06.15-.16.15H68.5v3h3.7v-1.2a.14.14,0,0,1,.16-.15H73a.14.14,0,0,1,.16.15v2a.14.14,0,0,1-.16.15Z"/><path class="cls-2" d="M75,109.77h0s0,.6,0,.64a.16.16,0,0,1-.17.16h-.42a.15.15,0,0,1-.16-.16v-1.84a.15.15,0,0,1,.16-.16h.48a.16.16,0,0,1,.17.16v.25a1.73,1.73,0,0,0,1.73,1c.87,0,1.33-.36,1.33-1,0-1.22-3.7-.58-3.7-2.72a1.82,1.82,0,0,1,2.05-1.74,2,2,0,0,1,1.74.71h0s0-.44,0-.45a.15.15,0,0,1,.16-.16h.39a.15.15,0,0,1,.16.16v1.71a.15.15,0,0,1-.16.16h-.48a.16.16,0,0,1-.17-.16v-.17c0-.34-.4-1-1.52-1a1,1,0,0,0-1.17,1c0,1.38,3.76.65,3.76,2.72,0,.9-.63,1.73-2.26,1.73A2.12,2.12,0,0,1,75,109.77Z"/><path class="cls-2" d="M84.18,109.95c.07.07,0,.16,0,.23a1.77,1.77,0,0,1-1.24.48,1.84,1.84,0,0,1-2-2.09v-3.22h-.69a.16.16,0,0,1-.17-.16v-.5a.16.16,0,0,1,.17-.16h.69v-1.24a.17.17,0,0,1,.17-.17h.69a.16.16,0,0,1,.16.17v1.24h1.56a.16.16,0,0,1,.17.16v.5a.16.16,0,0,1-.17.16H82v3.19c0,.82.39,1.24,1.06,1.24a1,1,0,0,0,.65-.23.14.14,0,0,1,.22,0Z"/><path class="cls-2" d="M85.47,110.66a.58.58,0,1,1,.58-.58A.57.57,0,0,1,85.47,110.66Z"/><path class="cls-2" d="M91,110.57a.14.14,0,0,1-.16-.15v-.63c0-.1.06-.15.16-.15h2V102.9l-1.7,1.22a.13.13,0,0,1-.21,0l-.34-.5a.13.13,0,0,1,0-.21l2.14-1.54a.33.33,0,0,1,.22-.09h.77a.13.13,0,0,1,.15.15v7.75h1.79a.13.13,0,0,1,.15.15v.63a.14.14,0,0,1-.15.15Z"/><path class="cls-2" d="M98.17,108.19a.13.13,0,0,1,.15.15,1.48,1.48,0,0,0,1.67,1.35c1.43,0,2.21-1.07,2.36-2.88a4.37,4.37,0,0,1-2.38.63,2.7,2.7,0,0,1-3-2.84,2.92,2.92,0,0,1,3.21-2.92c2.19,0,3.37,1.79,3.37,4.42s-1.25,4.56-3.53,4.56c-1.66,0-2.72-1-2.72-2.32a.14.14,0,0,1,.15-.15Zm2-5.52a2,2,0,1,0,0,3.93,3.88,3.88,0,0,0,2.21-.68C102.37,103.84,101.55,102.67,100.17,102.67Z"/><path class="cls-2" d="M106.92,110.57a.13.13,0,0,1-.15-.15c0-5.38,2.84-5.17,2.91-7.83h-4.14v.88a.14.14,0,0,1-.15.15h-.77c-.1,0-.16,0-.16-.15v-1.66c0-.1.06-.15.16-.15h6.1a.13.13,0,0,1,.15.15v.41c0,3.27-3,3.15-3,8.18a.14.14,0,0,1-.16.16Z"/><path class="cls-2" d="M116.35,105.94a2,2,0,0,1,1.77,2.19c0,1.52-1.3,2.53-3.26,2.53a3.5,3.5,0,0,1-3-1.44.13.13,0,0,1,0-.21l.53-.49a.15.15,0,0,1,.22,0,2.74,2.74,0,0,0,2.23,1.14c1.32,0,2.15-.66,2.15-1.67s-.77-1.56-2.11-1.56h-.49a.14.14,0,0,1-.15-.16v-.55c0-.1,0-.16.15-.16h.39c.69,0,1.93-.22,1.93-1.44,0-.77-.54-1.46-1.81-1.46a1.48,1.48,0,0,0-1.66,1.43.14.14,0,0,1-.15.15h-.75a.13.13,0,0,1-.15-.15,2.4,2.4,0,0,1,2.7-2.41c2.11,0,2.92,1.3,2.92,2.35a2,2,0,0,1-1.5,1.9Z"/></svg>